<svg width="32" height="32" viewBox="0 0 32 32" fill="none" xmlns="http://www.w3.org/2000/svg">
<path d="M5.82129 28.3127V26.6647C5.83096 26.5261 5.81096 26.3871 5.76263 26.2568C5.71431 26.1265 5.63876 26.0081 5.54103 25.9093C5.44331 25.8105 5.32565 25.7337 5.1959 25.684C5.06615 25.6343 4.9273 25.6129 4.7886 25.6211C4.60708 25.6092 4.4257 25.6463 4.26338 25.7284C4.10107 25.8106 3.96375 25.9347 3.86575 26.088C3.77643 25.9393 3.64868 25.8175 3.49593 25.7353C3.34319 25.6531 3.17111 25.6137 2.99783 25.6211C2.84678 25.6135 2.69636 25.6455 2.56147 25.7139C2.42659 25.7823 2.31191 25.8847 2.22878 26.0111V25.687H1.65747V28.3127H2.23425V26.857C2.22178 26.7672 2.22936 26.6757 2.25644 26.5892C2.28352 26.5026 2.32943 26.4231 2.39088 26.3564C2.45232 26.2897 2.52778 26.2375 2.61182 26.2034C2.69587 26.1693 2.78642 26.1543 2.87696 26.1594C3.25599 26.1594 3.44827 26.4066 3.44827 26.8515V28.3127H4.02505V26.857C4.01352 26.7673 4.02175 26.6762 4.04918 26.5901C4.07661 26.504 4.12256 26.4249 4.18381 26.3584C4.24506 26.2919 4.32013 26.2397 4.40373 26.2053C4.48734 26.1709 4.57745 26.1552 4.66776 26.1594C5.05774 26.1594 5.24451 26.4066 5.24451 26.8515V28.3127H5.82129ZM14.3577 25.687H13.4238V24.8905H12.8471V25.687H12.3142V26.2088H12.8471V27.4063C12.8471 28.0161 13.0833 28.3786 13.7589 28.3786C14.0113 28.3794 14.2588 28.309 14.473 28.1754L14.3083 27.6865C14.1551 27.7779 13.9812 27.8289 13.8029 27.8348C13.5172 27.8348 13.4238 27.659 13.4238 27.3954V26.2088H14.3577V25.687ZM19.2301 25.6211C19.0908 25.617 18.953 25.6505 18.8312 25.7182C18.7094 25.7859 18.6081 25.8851 18.538 26.0056V25.687H17.9722V28.3127H18.5435V26.8405C18.5435 26.4066 18.7302 26.1649 19.1038 26.1649C19.226 26.1632 19.3473 26.1856 19.4608 26.2308L19.6366 25.6925C19.5061 25.6458 19.3687 25.6216 19.2301 25.6211V25.6211ZM11.8638 25.8957C11.5404 25.7034 11.1686 25.6081 10.7926 25.6211C10.1279 25.6211 9.6995 25.9397 9.6995 26.4615C9.6995 26.89 10.0181 27.1537 10.6058 27.2361L10.875 27.2745C11.1881 27.3184 11.3364 27.4008 11.3364 27.5491C11.3364 27.7524 11.1277 27.8678 10.7377 27.8678C10.424 27.8768 10.1163 27.78 9.86426 27.5931L9.59511 28.038C9.92787 28.2704 10.3265 28.3898 10.7322 28.3786C11.4902 28.3786 11.9297 28.0215 11.9297 27.5217C11.9297 27.0603 11.5836 26.8185 11.0123 26.7361L10.7432 26.6977C10.496 26.6647 10.2982 26.6154 10.2982 26.4396C10.2982 26.2473 10.485 26.1319 10.7981 26.1319C11.0856 26.1363 11.3673 26.2138 11.6166 26.3571L11.8638 25.8957ZM27.1677 25.6211C27.0284 25.617 26.8906 25.6505 26.7688 25.7182C26.647 25.7859 26.5457 25.8851 26.4756 26.0056V25.687H25.9098V28.3127H26.4811V26.8405C26.4811 26.4066 26.6679 26.1649 27.0414 26.1649C27.1636 26.1632 27.2849 26.1856 27.3985 26.2308L27.5742 25.6925C27.4438 25.6458 27.3063 25.6216 27.1677 25.6211V25.6211ZM19.8069 26.9998C19.7993 27.1848 19.8305 27.3693 19.8985 27.5415C19.9665 27.7137 20.0698 27.8697 20.2017 27.9996C20.3337 28.1295 20.4914 28.2303 20.6646 28.2956C20.8378 28.3609 21.0228 28.3892 21.2077 28.3786C21.5507 28.3959 21.8877 28.2842 22.1525 28.0655L21.8778 27.6041C21.6803 27.7546 21.4395 27.8375 21.1912 27.8403C20.9771 27.8273 20.776 27.7331 20.629 27.5769C20.482 27.4207 20.4002 27.2143 20.4002 26.9998C20.4002 26.7854 20.482 26.579 20.629 26.4228C20.776 26.2666 20.9771 26.1724 21.1912 26.1594C21.4395 26.1622 21.6803 26.245 21.8778 26.3956L22.1525 25.9342C21.8877 25.7155 21.5506 25.6038 21.2077 25.6211C21.0228 25.6105 20.8379 25.6388 20.6646 25.7041C20.4914 25.7694 20.3337 25.8702 20.2018 26.0001C20.0698 26.1299 19.9665 26.2859 19.8985 26.4581C19.8305 26.6303 19.7993 26.8148 19.8069 26.9998V26.9998ZM25.1572 26.9998V25.687H24.5859V26.0056C24.4884 25.8799 24.3622 25.7794 24.2179 25.7125C24.0736 25.6456 23.9154 25.6143 23.7565 25.6211C23.4025 25.6384 23.0687 25.7913 22.8243 26.0479C22.5799 26.3046 22.4436 26.6454 22.4436 26.9999C22.4436 27.3543 22.5799 27.6951 22.8243 27.9518C23.0687 28.2085 23.4025 28.3613 23.7565 28.3786C23.9154 28.3854 24.0736 28.3541 24.2179 28.2871C24.3622 28.2202 24.4884 28.1197 24.5859 27.9941V28.3127H25.1572V26.9998ZM23.0314 26.9998C23.0402 26.8448 23.0942 26.6959 23.1868 26.5713C23.2793 26.4467 23.4062 26.3519 23.552 26.2985C23.6977 26.2452 23.8559 26.2357 24.007 26.2712C24.1581 26.3067 24.2954 26.3856 24.4022 26.4983C24.509 26.6109 24.5804 26.7524 24.6078 26.9051C24.6351 27.0579 24.6171 27.2153 24.5561 27.358C24.495 27.5007 24.3935 27.6224 24.2642 27.7081C24.1348 27.7938 23.9831 27.8397 23.8279 27.8403C23.7191 27.8417 23.6112 27.8207 23.511 27.7784C23.4108 27.7361 23.3204 27.6735 23.2455 27.5945C23.1707 27.5155 23.113 27.4219 23.0762 27.3196C23.0393 27.2172 23.0241 27.1083 23.0314 26.9998V26.9998ZM16.1375 25.6211C15.7812 25.6398 15.4461 25.7958 15.2023 26.0563C14.9586 26.3169 14.8252 26.6616 14.8302 27.0184C14.8352 27.3751 14.9781 27.716 15.229 27.9696C15.4799 28.2233 15.8193 28.3698 16.1759 28.3786C16.5679 28.3924 16.9511 28.2614 17.2526 28.0106L16.9724 27.5876C16.7555 27.7615 16.4868 27.8581 16.2089 27.8623C16.0201 27.8781 15.8326 27.8199 15.6859 27.7C15.5393 27.58 15.4452 27.4077 15.4234 27.2195H17.3734C17.3789 27.1482 17.3844 27.0767 17.3844 26.9998C17.3789 26.1814 16.8736 25.6211 16.1375 25.6211V25.6211ZM16.1265 26.1319C16.299 26.1286 16.4659 26.1937 16.5905 26.3132C16.7151 26.4326 16.7872 26.5966 16.7912 26.7691H15.4288C15.4389 26.5928 15.5175 26.4275 15.6478 26.3084C15.7782 26.1893 15.95 26.126 16.1265 26.1319V26.1319ZM30.4581 26.9998V24.6323H29.8868V26.0056C29.7893 25.8799 29.6631 25.7794 29.5188 25.7125C29.3745 25.6456 29.2163 25.6143 29.0574 25.6211C28.7034 25.6384 28.3696 25.7912 28.1252 26.0479C27.8808 26.3046 27.7445 26.6454 27.7445 26.9999C27.7445 27.3543 27.8808 27.6951 28.1252 27.9518C28.3696 28.2085 28.7034 28.3613 29.0574 28.3786C29.2163 28.3854 29.3745 28.3541 29.5188 28.2871C29.6631 28.2202 29.7893 28.1197 29.8868 27.9941V28.3127H30.4581V26.9998ZM31.4104 27.9322C31.4459 27.9319 31.4811 27.9389 31.5138 27.9527C31.5452 27.9658 31.5739 27.9848 31.5982 28.0086C31.6224 28.0324 31.6417 28.0607 31.6551 28.0918C31.6689 28.1238 31.6759 28.1582 31.6759 28.193C31.6759 28.2278 31.6689 28.2623 31.6551 28.2943C31.6416 28.3252 31.6223 28.3534 31.5982 28.3771C31.5738 28.4009 31.5452 28.42 31.5138 28.4333C31.4811 28.4473 31.446 28.4544 31.4104 28.4542C31.3582 28.4547 31.3069 28.4398 31.2631 28.4114C31.2192 28.3829 31.1847 28.3422 31.1639 28.2943C31.1502 28.2623 31.1431 28.2278 31.1431 28.193C31.1431 28.1582 31.1502 28.1238 31.1639 28.0918C31.1773 28.0607 31.1965 28.0325 31.2205 28.0086C31.2448 27.9846 31.2736 27.9656 31.3053 27.9527C31.3386 27.9389 31.3744 27.9319 31.4104 27.9322V27.9322ZM31.4104 28.3966C31.4375 28.3968 31.4643 28.3914 31.4892 28.3806C31.513 28.3702 31.5347 28.3555 31.5531 28.3371C31.591 28.2988 31.6123 28.2471 31.6123 28.1931C31.6123 28.1392 31.591 28.0875 31.5531 28.0492C31.5347 28.0309 31.5131 28.0162 31.4892 28.0061C31.4643 27.9955 31.4375 27.9902 31.4104 27.9904C31.3829 27.9902 31.3556 27.9955 31.3302 28.0061C31.3059 28.0161 31.2839 28.0307 31.2653 28.0492C31.2273 28.0875 31.206 28.1392 31.206 28.1931C31.206 28.2471 31.2273 28.2988 31.2653 28.3371C31.2839 28.3556 31.306 28.3704 31.3302 28.3806C31.3556 28.3913 31.3829 28.3968 31.4104 28.3966V28.3966ZM31.4258 28.071C31.4515 28.0693 31.477 28.0767 31.4978 28.0918C31.5061 28.0986 31.5127 28.1073 31.5171 28.1171C31.5215 28.1269 31.5235 28.1377 31.523 28.1484C31.5233 28.1576 31.5217 28.1668 31.5182 28.1753C31.5148 28.1838 31.5095 28.1915 31.5029 28.1979C31.487 28.2121 31.4669 28.2205 31.4456 28.2219L31.525 28.3134H31.4629L31.3894 28.2226H31.3657V28.3134H31.3139V28.071H31.4258ZM31.3657 28.1164V28.181H31.4252C31.4366 28.1816 31.448 28.1788 31.4578 28.173C31.4618 28.1703 31.4651 28.1666 31.4672 28.1623C31.4693 28.158 31.4703 28.1532 31.47 28.1484C31.4702 28.1437 31.4692 28.139 31.4671 28.1348C31.465 28.1305 31.4618 28.127 31.4578 28.1244C31.448 28.1186 31.4366 28.1159 31.4252 28.1164H31.3657ZM28.3323 26.9998C28.3412 26.8449 28.3952 26.6959 28.4877 26.5713C28.5802 26.4467 28.7072 26.3519 28.8529 26.2986C28.9987 26.2453 29.1568 26.2358 29.3079 26.2713C29.459 26.3068 29.5964 26.3857 29.7031 26.4984C29.8099 26.611 29.8813 26.7524 29.9086 26.9052C29.936 27.058 29.918 27.2154 29.8569 27.3581C29.7959 27.5007 29.6944 27.6224 29.565 27.7081C29.4356 27.7938 29.284 27.8397 29.1288 27.8403C29.02 27.8417 28.9121 27.8207 28.8119 27.7784C28.7117 27.7361 28.6213 27.6734 28.5464 27.5945C28.4716 27.5155 28.414 27.4219 28.3771 27.3196C28.3402 27.2172 28.325 27.1083 28.3323 26.9998V26.9998ZM9.0403 26.9998V25.687H8.46899V26.0056C8.37148 25.8799 8.24529 25.7794 8.10098 25.7125C7.95667 25.6456 7.79844 25.6143 7.63952 25.6211C7.28553 25.6384 6.95178 25.7913 6.70738 26.0479C6.46299 26.3046 6.32668 26.6454 6.32668 26.9999C6.32668 27.3543 6.46299 27.6951 6.70738 27.9518C6.95178 28.2085 7.28553 28.3613 7.63952 28.3786C7.79844 28.3854 7.95667 28.3541 8.10098 28.2871C8.24529 28.2202 8.37148 28.1197 8.46899 27.9941V28.3127H9.0403V26.9998ZM6.91446 26.9998C6.92334 26.8449 6.97736 26.6959 7.06988 26.5713C7.16239 26.4467 7.28935 26.3519 7.43509 26.2986C7.58084 26.2453 7.739 26.2358 7.89007 26.2713C8.04115 26.3068 8.17853 26.3857 8.28528 26.4984C8.39202 26.611 8.46347 26.7525 8.4908 26.9052C8.51814 27.058 8.50016 27.2154 8.4391 27.3581C8.37803 27.5007 8.27655 27.6224 8.14716 27.7081C8.01777 27.7938 7.86613 27.8397 7.71094 27.8403C7.60217 27.8417 7.49426 27.8207 7.39404 27.7784C7.29382 27.7361 7.20344 27.6734 7.12862 27.5945C7.05379 27.5155 6.99613 27.4219 6.95927 27.3196C6.92241 27.2172 6.90716 27.1083 6.91446 26.9998V26.9998Z" fill="#231F20"/>
<path d="M20.3267 5.67627H11.6738V21.2258H20.3267V5.67627Z" fill="#FF5F00"/>
<path d="M12.2232 13.4515C12.2218 11.954 12.5611 10.4758 13.2155 9.12881C13.8699 7.78182 14.8222 6.60135 16.0002 5.67678C14.5414 4.5301 12.7893 3.817 10.9444 3.61898C9.09943 3.42096 7.23598 3.74601 5.56703 4.55698C3.89808 5.36795 2.49096 6.63212 1.50651 8.205C0.522061 9.77788 0 11.596 0 13.4515C0 15.3071 0.522061 17.1252 1.50651 18.6981C2.49096 20.271 3.89808 21.5351 5.56703 22.3461C7.23598 23.1571 9.09943 23.4821 10.9444 23.2841C12.7893 23.0861 14.5414 22.373 16.0002 21.2263C14.8222 20.3017 13.8699 19.1213 13.2155 17.7743C12.5612 16.4273 12.2218 14.9491 12.2232 13.4515V13.4515Z" fill="#EB001B"/>
<path d="M31.9999 13.4515C32 15.3071 31.478 17.1252 30.4936 18.6981C29.5092 20.2709 28.1022 21.5351 26.4332 22.3461C24.7643 23.1571 22.9009 23.4821 21.056 23.2841C19.211 23.0861 17.459 22.373 16.0002 21.2263C17.1772 20.3008 18.1288 19.1202 18.783 17.7734C19.4373 16.4266 19.7773 14.9488 19.7773 13.4515C19.7773 11.9542 19.4373 10.4765 18.783 9.12972C18.1288 7.78294 17.1772 6.60228 16.0002 5.67678C17.459 4.5301 19.211 3.81699 21.056 3.61898C22.9009 3.42096 24.7643 3.74602 26.4332 4.557C28.1022 5.36798 29.5092 6.63215 30.4936 8.20503C31.478 9.77791 32 11.596 31.9999 13.4515V13.4515Z" fill="#F79E1B"/>
<path d="M31.0565 19.5791V19.2608H31.1848V19.1959H30.8579V19.2608H30.9863V19.5791H31.0565ZM31.6911 19.5791V19.1953H31.5909L31.4757 19.4593L31.3604 19.1953H31.2601V19.5791H31.3309V19.2896L31.439 19.5392H31.5123L31.6204 19.289V19.5791H31.6911Z" fill="#F79E1B"/>
</svg>
