<svg width="10" height="10" viewBox="0 0 10 10" fill="none" xmlns="http://www.w3.org/2000/svg">
<path d="M4.99993 7.84787C4.81993 7.84787 4.63993 7.77787 4.50393 7.64087L0.206928 3.34387C0.0757787 3.21285 0.00204698 3.0351 0.00195321 2.84972C0.00185945 2.66434 0.0754113 2.48652 0.206428 2.35537C0.337445 2.22422 0.515195 2.15048 0.700575 2.15039C0.885954 2.1503 1.06378 2.22385 1.19493 2.35487L4.99993 6.15587L8.79993 2.35587C8.93172 2.22439 9.11027 2.15056 9.29643 2.15056C9.48258 2.15056 9.66114 2.22439 9.79293 2.35587C9.85788 2.4207 9.9094 2.4977 9.94456 2.58247C9.97971 2.66723 9.99781 2.7581 9.99781 2.84987C9.99781 2.94163 9.97971 3.0325 9.94456 3.11727C9.9094 3.20203 9.85788 3.27903 9.79293 3.34387L5.49293 7.64387C5.36141 7.77356 5.18463 7.84607 4.99993 7.84787Z" fill="#181C1F"/>
</svg>
