<svg width="18" height="18" viewBox="0 0 18 18" fill="none" xmlns="http://www.w3.org/2000/svg">
<path d="M8.99992 12.0379C8.79742 12.0379 8.59492 11.9591 8.44192 11.805L3.60554 6.96861C3.46834 6.81914 3.39413 6.62248 3.39837 6.41964C3.4026 6.21679 3.48496 6.02341 3.62828 5.8798C3.7716 5.73619 3.96482 5.65344 4.16766 5.64879C4.37049 5.64414 4.5673 5.71796 4.71704 5.85486L8.99992 10.1344L13.2772 5.85823C13.3876 5.7487 13.5279 5.67417 13.6805 5.64396C13.8331 5.61376 13.9912 5.62922 14.135 5.68841C14.2789 5.74761 14.4021 5.84791 14.4892 5.97677C14.5764 6.10562 14.6236 6.25731 14.6249 6.41286C14.6249 6.5161 14.6045 6.61833 14.5649 6.7137C14.5254 6.80906 14.4674 6.89568 14.3943 6.96861L9.55454 11.8084C9.40647 11.954 9.20757 12.0363 8.99992 12.0379Z" fill="#394247"/>
</svg>
