<svg width="21" height="20" viewBox="0 0 21 20" fill="none" xmlns="http://www.w3.org/2000/svg">
<path d="M9.9161 3.41601L6.58276 6.66601C6.24943 6.99934 6.24943 7.49934 6.58276 7.83268C6.9161 8.16601 7.4161 8.16601 7.74943 7.83268L9.6661 5.99935V15.9994C9.6661 16.4994 9.99943 16.8327 10.4994 16.8327C10.9994 16.8327 11.3328 16.4994 11.3328 15.9994V5.99935L13.2494 7.83268C13.5828 8.16601 14.0828 8.16601 14.4161 7.83268C14.5828 7.66601 14.6661 7.49934 14.6661 7.24934C14.6661 6.99934 14.5828 6.83268 14.4161 6.66601L11.0828 3.41601C10.7494 3.08268 10.2494 3.08268 9.9161 3.41601Z" fill="#FF3B30"/>
</svg>
