<svg width="14" height="14" viewBox="0 0 14 14" fill="none" xmlns="http://www.w3.org/2000/svg">
<g clip-path="url(#clip0_9_1798)">
<path d="M6.52424 0.963655C6.67392 0.503 7.32562 0.503001 7.4753 0.963656L8.68363 4.6825C8.75056 4.88851 8.94254 5.02799 9.15915 5.02799H13.0694C13.5538 5.02799 13.7552 5.6478 13.3633 5.9325L10.1999 8.23088C10.0246 8.3582 9.95126 8.58388 10.0182 8.78989L11.2266 12.5087C11.3762 12.9694 10.849 13.3524 10.4571 13.0677L7.29366 10.7694C7.11842 10.642 6.88112 10.642 6.70588 10.7694L3.54244 13.0677C3.15058 13.3524 2.62334 12.9694 2.77302 12.5087L3.98134 8.78989C4.04828 8.58388 3.97495 8.3582 3.79971 8.23088L0.636264 5.9325C0.244408 5.6478 0.445797 5.02799 0.930159 5.02799H4.84039C5.057 5.02799 5.24898 4.88851 5.31591 4.6825L6.52424 0.963655Z" fill="#FFB000"/>
</g>
<defs>
<clipPath id="clip0_9_1798">
<rect width="14" height="14" fill="white"/>
</clipPath>
</defs>
</svg>
