<svg width="21" height="20" viewBox="0 0 21 20" fill="none" xmlns="http://www.w3.org/2000/svg">
<path d="M9.91635 3.41601L6.58301 6.66601C6.24968 6.99934 6.24968 7.49934 6.58301 7.83268C6.91635 8.16601 7.41635 8.16601 7.74968 7.83268L9.66635 5.99935V15.9994C9.66635 16.4994 9.99968 16.8327 10.4996 16.8327C10.9996 16.8327 11.333 16.4994 11.333 15.9994V5.99935L13.2496 7.83268C13.583 8.16601 14.083 8.16601 14.4163 7.83268C14.583 7.66601 14.6663 7.49934 14.6663 7.24934C14.6663 6.99934 14.583 6.83268 14.4163 6.66601L11.083 3.41601C10.7496 3.08268 10.2496 3.08268 9.91635 3.41601Z" fill="#FF3B30"/>
</svg>
