<svg width="18" height="12" viewBox="0 0 18 12" fill="none" xmlns="http://www.w3.org/2000/svg">
<path d="M2.6999 7.8002C3.69401 7.8002 4.4999 6.99431 4.4999 6.0002C4.4999 5.00608 3.69401 4.2002 2.6999 4.2002C1.70579 4.2002 0.899902 5.00608 0.899902 6.0002C0.899902 6.99431 1.70579 7.8002 2.6999 7.8002Z" fill="#E7FAF2"/>
<path d="M8.99995 7.8002C9.99406 7.8002 10.8 6.99431 10.8 6.0002C10.8 5.00608 9.99406 4.2002 8.99995 4.2002C8.00584 4.2002 7.19995 5.00608 7.19995 6.0002C7.19995 6.99431 8.00584 7.8002 8.99995 7.8002Z" fill="#E7FAF2"/>
<path d="M15.3 7.8002C16.2941 7.8002 17.1 6.99431 17.1 6.0002C17.1 5.00608 16.2941 4.2002 15.3 4.2002C14.3059 4.2002 13.5 5.00608 13.5 6.0002C13.5 6.99431 14.3059 7.8002 15.3 7.8002Z" fill="#E7FAF2"/>
</svg>
