<svg width="16" height="16" viewBox="0 0 16 16" fill="none" xmlns="http://www.w3.org/2000/svg">
<path d="M12.6667 6.9668H3.33333C2.59695 6.9668 2 7.56375 2 8.30013V12.9668C2 13.7032 2.59695 14.3001 3.33333 14.3001H12.6667C13.403 14.3001 14 13.7032 14 12.9668V8.30013C14 7.56375 13.403 6.9668 12.6667 6.9668Z" stroke="#181C1F" stroke-width="1.5" stroke-linecap="round" stroke-linejoin="round"/>
<path d="M4.66699 6.9668V4.30013C4.66699 3.41608 5.01818 2.56823 5.6433 1.94311C6.26842 1.31799 7.11627 0.966797 8.00032 0.966797C8.88438 0.966797 9.73222 1.31799 10.3573 1.94311C10.9824 2.56823 11.3336 3.41608 11.3336 4.30013V6.9668" stroke="#181C1F" stroke-width="1.5" stroke-linecap="round" stroke-linejoin="round"/>
</svg>
