<svg width="96" height="96" viewBox="0 0 96 96" fill="none" xmlns="http://www.w3.org/2000/svg">
<g clip-path="url(#clip0_12_6616)">
<path d="M0 0H96V96H0V0Z" fill="white"/>
<path d="M0 1.6543H23.1724H0ZM26.4828 1.6543H33.1035H26.4828ZM39.7241 1.6543H43.0345H39.7241ZM46.3448 1.6543H49.6552H46.3448ZM52.9655 1.6543H66.2069H52.9655ZM72.8276 1.6543H96H72.8276ZM0 4.96464H3.31034H0ZM19.8621 4.96464H23.1724H19.8621ZM26.4828 4.96464H29.7931H26.4828ZM33.1035 4.96464H39.7241H33.1035ZM52.9655 4.96464H56.2759H52.9655ZM59.5862 4.96464H62.8966H59.5862ZM72.8276 4.96464H76.1379H72.8276ZM92.6897 4.96464H96H92.6897ZM0 8.27499H3.31034H0ZM6.62069 8.27499H16.5517H6.62069ZM19.8621 8.27499H23.1724H19.8621ZM33.1035 8.27499H36.4138H33.1035ZM39.7241 8.27499H46.3448H39.7241ZM49.6552 8.27499H52.9655H49.6552ZM62.8966 8.27499H69.5172H62.8966ZM72.8276 8.27499H76.1379H72.8276ZM79.4483 8.27499H89.3793H79.4483ZM92.6897 8.27499H96H92.6897ZM0 11.5853H3.31034H0ZM6.62069 11.5853H16.5517H6.62069ZM19.8621 11.5853H23.1724H19.8621ZM26.4828 11.5853H29.7931H26.4828ZM33.1035 11.5853H36.4138H33.1035ZM39.7241 11.5853H49.6552H39.7241ZM56.2759 11.5853H59.5862H56.2759ZM72.8276 11.5853H76.1379H72.8276ZM79.4483 11.5853H89.3793H79.4483ZM92.6897 11.5853H96H92.6897ZM0 14.8957H3.31034H0ZM6.62069 14.8957H16.5517H6.62069ZM19.8621 14.8957H23.1724H19.8621ZM29.7931 14.8957H36.4138H29.7931ZM39.7241 14.8957H43.0345H39.7241ZM46.3448 14.8957H56.2759H46.3448ZM62.8966 14.8957H66.2069H62.8966ZM72.8276 14.8957H76.1379H72.8276ZM79.4483 14.8957H89.3793H79.4483ZM92.6897 14.8957H96H92.6897ZM0 18.206H3.31034H0ZM19.8621 18.206H23.1724H19.8621ZM29.7931 18.206H33.1035H29.7931ZM39.7241 18.206H49.6552H39.7241ZM59.5862 18.206H69.5172H59.5862ZM72.8276 18.206H76.1379H72.8276ZM92.6897 18.206H96H92.6897ZM0 21.5164H23.1724H0ZM26.4828 21.5164H29.7931H26.4828ZM33.1035 21.5164H36.4138H33.1035ZM39.7241 21.5164H43.0345H39.7241ZM46.3448 21.5164H49.6552H46.3448ZM52.9655 21.5164H56.2759H52.9655ZM59.5862 21.5164H62.8966H59.5862ZM66.2069 21.5164H69.5172H66.2069ZM72.8276 21.5164H96H72.8276ZM26.4828 24.8267H29.7931H26.4828ZM39.7241 24.8267H43.0345H39.7241ZM49.6552 24.8267H59.5862H49.6552ZM62.8966 24.8267H66.2069H62.8966ZM0 28.1371H3.31034H0ZM6.62069 28.1371H13.2414H6.62069ZM16.5517 28.1371H26.4828H16.5517ZM39.7241 28.1371H43.0345H39.7241ZM46.3448 28.1371H66.2069H46.3448ZM72.8276 28.1371H76.1379H72.8276ZM82.7586 28.1371H86.069H82.7586ZM89.3793 28.1371H96H89.3793ZM0 31.4474H9.93104H0ZM16.5517 31.4474H19.8621H16.5517ZM36.4138 31.4474H43.0345H36.4138ZM46.3448 31.4474H49.6552H46.3448ZM52.9655 31.4474H82.7586H52.9655ZM92.6897 31.4474H96H92.6897ZM6.62069 34.7577H16.5517H6.62069ZM19.8621 34.7577H26.4828H19.8621ZM29.7931 34.7577H49.6552H29.7931ZM56.2759 34.7577H59.5862H56.2759ZM69.5172 34.7577H72.8276H69.5172ZM76.1379 34.7577H82.7586H76.1379ZM86.069 34.7577H92.6897H86.069ZM6.62069 38.0681H13.2414H6.62069ZM33.1035 38.0681H46.3448H33.1035ZM49.6552 38.0681H52.9655H49.6552ZM59.5862 38.0681H66.2069H59.5862ZM69.5172 38.0681H72.8276H69.5172ZM76.1379 38.0681H82.7586H76.1379ZM92.6897 38.0681H96H92.6897ZM0 41.3784H6.62069H0ZM9.93104 41.3784H13.2414H9.93104ZM16.5517 41.3784H23.1724H16.5517ZM33.1035 41.3784H36.4138H33.1035ZM39.7241 41.3784H43.0345H39.7241ZM46.3448 41.3784H52.9655H46.3448ZM56.2759 41.3784H59.5862H56.2759ZM82.7586 41.3784H89.3793H82.7586ZM0 44.6888H3.31034H0ZM13.2414 44.6888H16.5517H13.2414ZM23.1724 44.6888H29.7931H23.1724ZM43.0345 44.6888H46.3448H43.0345ZM49.6552 44.6888H56.2759H49.6552ZM62.8966 44.6888H66.2069H62.8966ZM72.8276 44.6888H76.1379H72.8276ZM86.069 44.6888H96H86.069ZM0 47.9991H13.2414H0ZM19.8621 47.9991H23.1724H19.8621ZM26.4828 47.9991H33.1035H26.4828ZM46.3448 47.9991H49.6552H46.3448ZM56.2759 47.9991H66.2069H56.2759ZM69.5172 47.9991H79.4483H69.5172ZM86.069 47.9991H96H86.069ZM0 51.3095H3.31034H0ZM6.62069 51.3095H13.2414H6.62069ZM16.5517 51.3095H19.8621H16.5517ZM23.1724 51.3095H26.4828H23.1724ZM33.1035 51.3095H39.7241H33.1035ZM46.3448 51.3095H49.6552H46.3448ZM52.9655 51.3095H56.2759H52.9655ZM59.5862 51.3095H62.8966H59.5862ZM79.4483 51.3095H82.7586H79.4483ZM89.3793 51.3095H92.6897H89.3793ZM3.31034 54.6198H13.2414H3.31034ZM16.5517 54.6198H23.1724H16.5517ZM26.4828 54.6198H39.7241H26.4828ZM43.0345 54.6198H46.3448H43.0345ZM49.6552 54.6198H56.2759H49.6552ZM59.5862 54.6198H62.8966H59.5862ZM69.5172 54.6198H72.8276H69.5172ZM76.1379 54.6198H86.069H76.1379ZM89.3793 54.6198H92.6897H89.3793ZM6.62069 57.9302H13.2414H6.62069ZM36.4138 57.9302H39.7241H36.4138ZM43.0345 57.9302H49.6552H43.0345ZM56.2759 57.9302H59.5862H56.2759ZM66.2069 57.9302H69.5172H66.2069ZM76.1379 57.9302H79.4483H76.1379ZM82.7586 57.9302H92.6897H82.7586ZM0 61.2405H3.31034H0ZM13.2414 61.2405H16.5517H13.2414ZM19.8621 61.2405H26.4828H19.8621ZM29.7931 61.2405H33.1035H29.7931ZM36.4138 61.2405H43.0345H36.4138ZM49.6552 61.2405H52.9655H49.6552ZM56.2759 61.2405H62.8966H56.2759ZM72.8276 61.2405H76.1379H72.8276ZM79.4483 61.2405H82.7586H79.4483ZM86.069 61.2405H89.3793H86.069ZM6.62069 64.5508H9.93104H6.62069ZM16.5517 64.5508H19.8621H16.5517ZM29.7931 64.5508H33.1035H29.7931ZM36.4138 64.5508H39.7241H36.4138ZM49.6552 64.5508H66.2069H49.6552ZM76.1379 64.5508H82.7586H76.1379ZM86.069 64.5508H89.3793H86.069ZM3.31034 67.8612H13.2414H3.31034ZM16.5517 67.8612H23.1724H16.5517ZM33.1035 67.8612H36.4138H33.1035ZM46.3448 67.8612H59.5862H46.3448ZM66.2069 67.8612H89.3793H66.2069ZM26.4828 71.1715H33.1035H26.4828ZM46.3448 71.1715H49.6552H46.3448ZM52.9655 71.1715H62.8966H52.9655ZM66.2069 71.1715H69.5172H66.2069ZM79.4483 71.1715H96H79.4483ZM0 74.4819H23.1724H0ZM26.4828 74.4819H29.7931H26.4828ZM36.4138 74.4819H39.7241H36.4138ZM43.0345 74.4819H49.6552H43.0345ZM52.9655 74.4819H56.2759H52.9655ZM59.5862 74.4819H69.5172H59.5862ZM72.8276 74.4819H76.1379H72.8276ZM79.4483 74.4819H86.069H79.4483ZM89.3793 74.4819H92.6897H89.3793ZM0 77.7922H3.31034H0ZM19.8621 77.7922H23.1724H19.8621ZM26.4828 77.7922H39.7241H26.4828ZM43.0345 77.7922H46.3448H43.0345ZM52.9655 77.7922H56.2759H52.9655ZM59.5862 77.7922H69.5172H59.5862ZM79.4483 77.7922H86.069H79.4483ZM0 81.1026H3.31034H0ZM6.62069 81.1026H16.5517H6.62069ZM19.8621 81.1026H23.1724H19.8621ZM29.7931 81.1026H36.4138H29.7931ZM56.2759 81.1026H59.5862H56.2759ZM66.2069 81.1026H82.7586H66.2069ZM86.069 81.1026H96H86.069ZM0 84.4129H3.31034H0ZM6.62069 84.4129H16.5517H6.62069ZM19.8621 84.4129H23.1724H19.8621ZM26.4828 84.4129H39.7241H26.4828ZM43.0345 84.4129H56.2759H43.0345ZM62.8966 84.4129H72.8276H62.8966ZM76.1379 84.4129H86.069H76.1379ZM92.6897 84.4129H96H92.6897ZM0 87.7233H3.31034H0ZM6.62069 87.7233H16.5517H6.62069ZM19.8621 87.7233H23.1724H19.8621ZM26.4828 87.7233H29.7931H26.4828ZM43.0345 87.7233H46.3448H43.0345ZM59.5862 87.7233H69.5172H59.5862ZM76.1379 87.7233H79.4483H76.1379ZM86.069 87.7233H89.3793H86.069ZM92.6897 87.7233H96H92.6897ZM0 91.0336H3.31034H0ZM19.8621 91.0336H23.1724H19.8621ZM33.1035 91.0336H43.0345H33.1035ZM49.6552 91.0336H52.9655H49.6552ZM62.8966 91.0336H69.5172H62.8966ZM72.8276 91.0336H79.4483H72.8276ZM82.7586 91.0336H86.069H82.7586ZM89.3793 91.0336H92.6897H89.3793ZM0 94.344H23.1724H0ZM26.4828 94.344H29.7931H26.4828ZM59.5862 94.344H69.5172H59.5862ZM76.1379 94.344H79.4483H76.1379ZM89.3793 94.344H92.6897H89.3793Z" fill="black"/>
<path d="M0 1.6543H23.1724M26.4828 1.6543H33.1034M39.7241 1.6543H43.0345M46.3448 1.6543H49.6552M52.9655 1.6543H66.2069M72.8276 1.6543H96M0 4.96464H3.31034M19.8621 4.96464H23.1724M26.4828 4.96464H29.7931M33.1034 4.96464H39.7241M52.9655 4.96464H56.2759M59.5862 4.96464H62.8966M72.8276 4.96464H76.1379M92.6897 4.96464H96M0 8.27499H3.31034M6.62069 8.27499H16.5517M19.8621 8.27499H23.1724M33.1034 8.27499H36.4138M39.7241 8.27499H46.3448M49.6552 8.27499H52.9655M62.8966 8.27499H69.5172M72.8276 8.27499H76.1379M79.4483 8.27499H89.3793M92.6897 8.27499H96M0 11.5853H3.31034M6.62069 11.5853H16.5517M19.8621 11.5853H23.1724M26.4828 11.5853H29.7931M33.1034 11.5853H36.4138M39.7241 11.5853H49.6552M56.2759 11.5853H59.5862M72.8276 11.5853H76.1379M79.4483 11.5853H89.3793M92.6897 11.5853H96M0 14.8957H3.31034M6.62069 14.8957H16.5517M19.8621 14.8957H23.1724M29.7931 14.8957H36.4138M39.7241 14.8957H43.0345M46.3448 14.8957H56.2759M62.8966 14.8957H66.2069M72.8276 14.8957H76.1379M79.4483 14.8957H89.3793M92.6897 14.8957H96M0 18.206H3.31034M19.8621 18.206H23.1724M29.7931 18.206H33.1034M39.7241 18.206H49.6552M59.5862 18.206H69.5172M72.8276 18.206H76.1379M92.6897 18.206H96M0 21.5164H23.1724M26.4828 21.5164H29.7931M33.1034 21.5164H36.4138M39.7241 21.5164H43.0345M46.3448 21.5164H49.6552M52.9655 21.5164H56.2759M59.5862 21.5164H62.8966M66.2069 21.5164H69.5172M72.8276 21.5164H96M26.4828 24.8267H29.7931M39.7241 24.8267H43.0345M49.6552 24.8267H59.5862M62.8966 24.8267H66.2069M0 28.1371H3.31034M6.62069 28.1371H13.2414M16.5517 28.1371H26.4828M39.7241 28.1371H43.0345M46.3448 28.1371H66.2069M72.8276 28.1371H76.1379M82.7586 28.1371H86.069M89.3793 28.1371H96M0 31.4474H9.93103M16.5517 31.4474H19.8621M36.4138 31.4474H43.0345M46.3448 31.4474H49.6552M52.9655 31.4474H82.7586M92.6897 31.4474H96M6.62069 34.7577H16.5517M19.8621 34.7577H26.4828M29.7931 34.7577H49.6552M56.2759 34.7577H59.5862M69.5172 34.7577H72.8276M76.1379 34.7577H82.7586M86.069 34.7577H92.6897M6.62069 38.0681H13.2414M33.1034 38.0681H46.3448M49.6552 38.0681H52.9655M59.5862 38.0681H66.2069M69.5172 38.0681H72.8276M76.1379 38.0681H82.7586M92.6897 38.0681H96M0 41.3784H6.62069M9.93103 41.3784H13.2414M16.5517 41.3784H23.1724M33.1034 41.3784H36.4138M39.7241 41.3784H43.0345M46.3448 41.3784H52.9655M56.2759 41.3784H59.5862M82.7586 41.3784H89.3793M0 44.6888H3.31034M13.2414 44.6888H16.5517M23.1724 44.6888H29.7931M43.0345 44.6888H46.3448M49.6552 44.6888H56.2759M62.8966 44.6888H66.2069M72.8276 44.6888H76.1379M86.069 44.6888H96M0 47.9991H13.2414M19.8621 47.9991H23.1724M26.4828 47.9991H33.1034M46.3448 47.9991H49.6552M56.2759 47.9991H66.2069M69.5172 47.9991H79.4483M86.069 47.9991H96M0 51.3095H3.31034M6.62069 51.3095H13.2414M16.5517 51.3095H19.8621M23.1724 51.3095H26.4828M33.1034 51.3095H39.7241M46.3448 51.3095H49.6552M52.9655 51.3095H56.2759M59.5862 51.3095H62.8966M79.4483 51.3095H82.7586M89.3793 51.3095H92.6897M3.31034 54.6198H13.2414M16.5517 54.6198H23.1724M26.4828 54.6198H39.7241M43.0345 54.6198H46.3448M49.6552 54.6198H56.2759M59.5862 54.6198H62.8966M69.5172 54.6198H72.8276M76.1379 54.6198H86.069M89.3793 54.6198H92.6897M6.62069 57.9302H13.2414M36.4138 57.9302H39.7241M43.0345 57.9302H49.6552M56.2759 57.9302H59.5862M66.2069 57.9302H69.5172M76.1379 57.9302H79.4483M82.7586 57.9302H92.6897M0 61.2405H3.31034M13.2414 61.2405H16.5517M19.8621 61.2405H26.4828M29.7931 61.2405H33.1034M36.4138 61.2405H43.0345M49.6552 61.2405H52.9655M56.2759 61.2405H62.8966M72.8276 61.2405H76.1379M79.4483 61.2405H82.7586M86.069 61.2405H89.3793M6.62069 64.5509H9.93103M16.5517 64.5509H19.8621M29.7931 64.5509H33.1034M36.4138 64.5509H39.7241M49.6552 64.5509H66.2069M76.1379 64.5509H82.7586M86.069 64.5509H89.3793M3.31034 67.8612H13.2414M16.5517 67.8612H23.1724M33.1034 67.8612H36.4138M46.3448 67.8612H59.5862M66.2069 67.8612H89.3793M26.4828 71.1715H33.1034M46.3448 71.1715H49.6552M52.9655 71.1715H62.8966M66.2069 71.1715H69.5172M79.4483 71.1715H96M0 74.4819H23.1724M26.4828 74.4819H29.7931M36.4138 74.4819H39.7241M43.0345 74.4819H49.6552M52.9655 74.4819H56.2759M59.5862 74.4819H69.5172M72.8276 74.4819H76.1379M79.4483 74.4819H86.069M89.3793 74.4819H92.6897M0 77.7922H3.31034M19.8621 77.7922H23.1724M26.4828 77.7922H39.7241M43.0345 77.7922H46.3448M52.9655 77.7922H56.2759M59.5862 77.7922H69.5172M79.4483 77.7922H86.069M0 81.1026H3.31034M6.62069 81.1026H16.5517M19.8621 81.1026H23.1724M29.7931 81.1026H36.4138M56.2759 81.1026H59.5862M66.2069 81.1026H82.7586M86.069 81.1026H96M0 84.4129H3.31034M6.62069 84.4129H16.5517M19.8621 84.4129H23.1724M26.4828 84.4129H39.7241M43.0345 84.4129H56.2759M62.8966 84.4129H72.8276M76.1379 84.4129H86.069M92.6897 84.4129H96M0 87.7233H3.31034M6.62069 87.7233H16.5517M19.8621 87.7233H23.1724M26.4828 87.7233H29.7931M43.0345 87.7233H46.3448M59.5862 87.7233H69.5172M76.1379 87.7233H79.4483M86.069 87.7233H89.3793M92.6897 87.7233H96M0 91.0336H3.31034M19.8621 91.0336H23.1724M33.1034 91.0336H43.0345M49.6552 91.0336H52.9655M62.8966 91.0336H69.5172M72.8276 91.0336H79.4483M82.7586 91.0336H86.069M89.3793 91.0336H92.6897M0 94.344H23.1724M26.4828 94.344H29.7931M59.5862 94.344H69.5172M76.1379 94.344H79.4483M89.3793 94.344H92.6897" stroke="#2C3033" stroke-width="3.31034"/>
</g>
<defs>
<clipPath id="clip0_12_6616">
<rect width="96" height="96" fill="white"/>
</clipPath>
</defs>
</svg>
