<svg width="18" height="12" viewBox="0 0 18 12" fill="none" xmlns="http://www.w3.org/2000/svg">
<path d="M2.6999 7.79922C3.69401 7.79922 4.4999 6.99333 4.4999 5.99922C4.4999 5.00511 3.69401 4.19922 2.6999 4.19922C1.70579 4.19922 0.899902 5.00511 0.899902 5.99922C0.899902 6.99333 1.70579 7.79922 2.6999 7.79922Z" fill="#E7FAF2"/>
<path d="M8.99995 7.79922C9.99406 7.79922 10.8 6.99333 10.8 5.99922C10.8 5.00511 9.99406 4.19922 8.99995 4.19922C8.00584 4.19922 7.19995 5.00511 7.19995 5.99922C7.19995 6.99333 8.00584 7.79922 8.99995 7.79922Z" fill="#E7FAF2"/>
<path d="M15.3 7.79922C16.2941 7.79922 17.1 6.99333 17.1 5.99922C17.1 5.00511 16.2941 4.19922 15.3 4.19922C14.3059 4.19922 13.5 5.00511 13.5 5.99922C13.5 6.99333 14.3059 7.79922 15.3 7.79922Z" fill="#E7FAF2"/>
</svg>
