<svg width="18" height="12" viewBox="0 0 18 12" fill="none" xmlns="http://www.w3.org/2000/svg">
<path d="M2.70039 7.8002C3.6945 7.8002 4.50039 6.99431 4.50039 6.0002C4.50039 5.00608 3.6945 4.2002 2.70039 4.2002C1.70628 4.2002 0.900391 5.00608 0.900391 6.0002C0.900391 6.99431 1.70628 7.8002 2.70039 7.8002Z" fill="#E7FAF2"/>
<path d="M9.0002 7.8002C9.99431 7.8002 10.8002 6.99431 10.8002 6.0002C10.8002 5.00608 9.99431 4.2002 9.0002 4.2002C8.00608 4.2002 7.2002 5.00608 7.2002 6.0002C7.2002 6.99431 8.00608 7.8002 9.0002 7.8002Z" fill="#E7FAF2"/>
<path d="M15.3 7.8002C16.2941 7.8002 17.1 6.99431 17.1 6.0002C17.1 5.00608 16.2941 4.2002 15.3 4.2002C14.3059 4.2002 13.5 5.00608 13.5 6.0002C13.5 6.99431 14.3059 7.8002 15.3 7.8002Z" fill="#E7FAF2"/>
</svg>
