<svg width="24" height="25" viewBox="0 0 24 25" fill="none" xmlns="http://www.w3.org/2000/svg">
<g clip-path="url(#clip0_9_1744)">
<mask id="mask0_9_1744" style="mask-type:luminance" maskUnits="userSpaceOnUse" x="0" y="0" width="24" height="25">
<path d="M24 0.5H0V24.5H24V0.5Z" fill="white"/>
</mask>
<g mask="url(#mask0_9_1744)">
<path d="M12 24.5C18.6274 24.5 24 19.1274 24 12.5C24 5.87258 18.6274 0.5 12 0.5C5.37258 0.5 0 5.87258 0 12.5C0 19.1274 5.37258 24.5 12 24.5Z" fill="#627EEA"/>
<path d="M12.3735 3.5V10.1525L17.9963 12.665L12.3735 3.5Z" fill="white" fill-opacity="0.602"/>
<path d="M12.3735 3.5L6.75 12.665L12.3735 10.1525V3.5Z" fill="white"/>
<path d="M12.3735 16.9759V21.4962L18 13.7119L12.3735 16.9759Z" fill="white" fill-opacity="0.602"/>
<path d="M12.3735 21.4962V16.9752L6.75 13.7119L12.3735 21.4962Z" fill="white"/>
<path d="M12.3735 15.93L17.9963 12.6653L12.3735 10.1543V15.93Z" fill="white" fill-opacity="0.2"/>
<path d="M6.75 12.6653L12.3735 15.93V10.1543L6.75 12.6653Z" fill="white" fill-opacity="0.602"/>
</g>
</g>
<defs>
<clipPath id="clip0_9_1744">
<rect width="24" height="25" fill="white"/>
</clipPath>
</defs>
</svg>
