<svg width="18" height="18" viewBox="0 0 18 18" fill="none" xmlns="http://www.w3.org/2000/svg">
<path d="M9.00016 12.0379C8.79766 12.0379 8.59516 11.9591 8.44216 11.805L3.60579 6.96861C3.46859 6.81914 3.39437 6.62248 3.39861 6.41964C3.40285 6.21679 3.48521 6.02341 3.62853 5.8798C3.77185 5.73619 3.96506 5.65344 4.1679 5.64879C4.37074 5.64414 4.56754 5.71796 4.71729 5.85486L9.00016 10.1344L13.2774 5.85823C13.3879 5.7487 13.5282 5.67417 13.6807 5.64396C13.8333 5.61376 13.9914 5.62922 14.1353 5.68841C14.2791 5.74761 14.4023 5.84791 14.4895 5.97677C14.5766 6.10562 14.6238 6.25731 14.6252 6.41286C14.6251 6.5161 14.6048 6.61833 14.5652 6.7137C14.5256 6.80906 14.4676 6.89568 14.3945 6.96861L9.55479 11.8084C9.40671 11.954 9.20782 12.0363 9.00016 12.0379Z" fill="#394247"/>
</svg>
