<svg width="20" height="20" viewBox="0 0 20 20" fill="none" xmlns="http://www.w3.org/2000/svg">
<path fill-rule="evenodd" clip-rule="evenodd" d="M12.4919 0.666992C12.5472 1.50625 12.3187 2.33751 11.855 2.98424C11.633 3.3051 11.3512 3.56323 11.0308 3.73921C10.7105 3.91519 10.3599 4.00442 10.0056 4.00018C9.98299 3.59659 10.0291 3.19178 10.1412 2.80889C10.2533 2.426 10.4293 2.07254 10.6591 1.76872C11.1291 1.14681 11.7834 0.753439 12.4919 0.666992ZM14.9554 6.98722C14.6453 7.53641 14.4784 8.15552 14.4703 8.78695C14.4711 9.49722 14.6798 10.1915 15.0705 10.7834C15.4612 11.3752 16.0165 11.8383 16.6673 12.115C16.4115 12.9505 16.0258 13.7401 15.5246 14.4545C14.8515 15.4666 14.1457 16.4554 13.0256 16.4737C12.4929 16.4861 12.1332 16.3321 11.7585 16.1716C11.3677 16.0043 10.9604 15.8299 10.323 15.8299C9.64708 15.8299 9.22155 16.0099 8.81114 16.1835C8.45648 16.3335 8.11311 16.4788 7.62919 16.499C6.56243 16.5387 5.74716 15.4187 5.04959 14.4161C3.65533 12.3685 2.56965 8.64567 4.02516 6.11255C4.36117 5.50561 4.84785 4.99651 5.43779 4.63485C6.02773 4.27319 6.70081 4.07132 7.39144 4.04889C7.99647 4.03638 8.57703 4.27078 9.08602 4.47629C9.47528 4.63346 9.82269 4.77373 10.1072 4.77373C10.3572 4.77373 10.695 4.639 11.0885 4.48199C11.7085 4.23465 12.4671 3.932 13.2401 4.01357C13.8326 4.0322 14.4125 4.18944 14.934 4.47279C15.4554 4.75614 15.9039 5.1578 16.2438 5.64587C15.7087 5.9766 15.2654 6.43803 14.9554 6.98722Z" fill="black"/>
</svg>
