<svg width="16" height="16" viewBox="0 0 16 16" fill="none" xmlns="http://www.w3.org/2000/svg">
<path fill-rule="evenodd" clip-rule="evenodd" d="M1.88905 4.02288C2.0364 4.02288 2.1777 3.96434 2.28189 3.86016C2.38608 3.75597 2.44461 3.61466 2.44461 3.46732L2.4235 2.58732C2.42313 2.56882 2.42644 2.55044 2.43325 2.53323C2.44006 2.51602 2.45022 2.50035 2.46315 2.48711C2.47608 2.47388 2.49151 2.46334 2.50854 2.45613C2.52558 2.44892 2.54388 2.44516 2.56238 2.4451H3.46683C3.61418 2.4451 3.75548 2.38656 3.85967 2.28238C3.96386 2.17819 4.02239 2.03688 4.02239 1.88954C4.02239 1.7422 3.96386 1.60089 3.85967 1.4967C3.75548 1.39252 3.61418 1.33398 3.46683 1.33398H2.42016C2.13196 1.33398 1.85556 1.44847 1.65178 1.65226C1.44798 1.85605 1.3335 2.13245 1.3335 2.42065V3.46732C1.3335 3.61466 1.39203 3.75597 1.49622 3.86016C1.6004 3.96434 1.74171 4.02288 1.88905 4.02288ZM3.46683 13.5562L2.58683 13.5768C2.56833 13.5771 2.54995 13.5739 2.53274 13.567C2.51554 13.5602 2.49986 13.5501 2.48662 13.5371C2.47339 13.5242 2.46286 13.5088 2.45564 13.4917C2.44843 13.4747 2.44468 13.4564 2.44461 13.4379V12.534C2.44461 12.3867 2.38608 12.2453 2.28189 12.1411C2.1777 12.037 2.0364 11.9785 1.88905 11.9785C1.74171 11.9785 1.6004 12.037 1.49622 12.1411C1.39203 12.2453 1.3335 12.3867 1.3335 12.534V13.5801C1.3335 13.8685 1.44804 14.145 1.65194 14.3489C1.85583 14.5528 2.13237 14.6673 2.42072 14.6673H3.46683C3.61418 14.6673 3.75548 14.6088 3.85967 14.5046C3.96386 14.4005 4.02239 14.2591 4.02239 14.1118C4.02239 13.9645 3.96386 13.8231 3.85967 13.7189C3.75548 13.6147 3.61418 13.5562 3.46683 13.5562ZM12.5336 1.33398H13.5796C13.868 1.33398 14.1446 1.44853 14.3484 1.65242C14.5523 1.85632 14.6669 2.13286 14.6669 2.4212V3.46732C14.6669 3.61466 14.6084 3.75597 14.5042 3.86016C14.4 3.96434 14.2586 4.02288 14.1113 4.02288C13.964 4.02288 13.8226 3.96434 13.7185 3.86016C13.6143 3.75597 13.5558 3.61466 13.5558 3.46732V2.56343C13.5557 2.54493 13.552 2.52662 13.5447 2.50959C13.5375 2.49255 13.527 2.47712 13.5138 2.46419C13.5005 2.45126 13.4848 2.4411 13.4676 2.4343C13.4504 2.42749 13.432 2.42417 13.4136 2.42454L12.5336 2.4451C12.3862 2.4451 12.2449 2.38656 12.1407 2.28238C12.0365 2.17819 11.978 2.03688 11.978 1.88954C11.978 1.7422 12.0365 1.60089 12.1407 1.4967C12.2449 1.39252 12.3862 1.33398 12.5336 1.33398ZM14.1113 11.9785C13.964 11.9785 13.8226 12.037 13.7185 12.1411C13.6143 12.2453 13.5558 12.3867 13.5558 12.534L13.5769 13.414C13.5772 13.4325 13.5739 13.4509 13.5671 13.4681C13.5603 13.4853 13.5502 13.501 13.5372 13.5142C13.5243 13.5275 13.5088 13.538 13.4918 13.5452C13.4748 13.5524 13.4565 13.5561 13.438 13.5562H12.5336C12.3862 13.5562 12.2449 13.6147 12.1407 13.7189C12.0365 13.8231 11.978 13.9645 11.978 14.1118C11.978 14.2591 12.0365 14.4005 12.1407 14.5046C12.2449 14.6088 12.3862 14.6673 12.5336 14.6673H13.5802C13.8684 14.6673 14.1448 14.5529 14.3486 14.3491C14.5524 14.1453 14.6669 13.8689 14.6669 13.5807V12.534C14.6669 12.3867 14.6084 12.2453 14.5042 12.1411C14.4 12.037 14.2586 11.9785 14.1113 11.9785ZM4.38901 3.83399H5.7779C5.93131 3.83399 6.05568 3.95836 6.05568 4.11177V5.50066C6.05568 5.65407 5.93131 5.77844 5.7779 5.77844H4.38901C4.2356 5.77844 4.11123 5.65407 4.11123 5.50066V4.11177C4.11123 3.95836 4.2356 3.83399 4.38901 3.83399ZM11.6112 3.83399H10.2224C10.069 3.83399 9.94456 3.95836 9.94456 4.11177V5.50066C9.94456 5.65407 10.069 5.77844 10.2224 5.77844H11.6112C11.7646 5.77844 11.889 5.65407 11.889 5.50066V4.11177C11.889 3.95836 11.7646 3.83399 11.6112 3.83399ZM10.2224 10.2229H11.6112C11.7646 10.2229 11.889 10.3473 11.889 10.5007V11.8895C11.889 12.0429 11.7646 12.1673 11.6112 12.1673H10.2224C10.069 12.1673 9.94456 12.0429 9.94456 11.8895V10.5007C9.94456 10.3473 10.069 10.2229 10.2224 10.2229ZM5.7779 10.2229H4.38901C4.2356 10.2229 4.11123 10.3473 4.11123 10.5007V11.8895C4.11123 12.0429 4.2356 12.1673 4.38901 12.1673H5.7779C5.93131 12.1673 6.05568 12.0429 6.05568 11.8895V10.5007C6.05568 10.3473 5.93131 10.2229 5.7779 10.2229ZM7.4615 5.8014C7.38336 5.87954 7.27736 5.92344 7.16683 5.92344C7.05636 5.92344 6.95036 5.87954 6.87223 5.8014C6.7941 5.72326 6.75016 5.61728 6.75016 5.50677V4.25066C6.75016 4.14015 6.7941 4.03417 6.87223 3.95603C6.95036 3.87789 7.05636 3.83399 7.16683 3.83399H8.79576C8.90623 3.83399 9.01223 3.87789 9.09036 3.95603C9.1685 4.03417 9.21243 4.14015 9.21243 4.25066C9.21243 4.36116 9.1685 4.46714 9.09036 4.54528C9.01223 4.62342 8.90623 4.66732 8.79576 4.66732H7.72243C7.68556 4.66732 7.65023 4.68196 7.62416 4.708C7.59816 4.73405 7.5835 4.76938 7.5835 4.80621V5.50677C7.5835 5.61728 7.53963 5.72326 7.4615 5.8014ZM8.8335 5.29569C8.72303 5.29569 8.61703 5.33959 8.5389 5.41773C8.46076 5.49587 8.41683 5.60185 8.41683 5.71236V7.57238C8.41683 7.68285 8.46076 7.78885 8.5389 7.86698C8.61703 7.94512 8.72303 7.98905 8.8335 7.98905C8.94403 7.98905 9.05003 7.94512 9.12816 7.86698C9.2063 7.78885 9.25016 7.68285 9.25016 7.57238V5.71236C9.25016 5.60185 9.2063 5.49587 9.12816 5.41773C9.05003 5.33959 8.94403 5.29569 8.8335 5.29569ZM7.4615 9.26752C7.38336 9.34565 7.27736 9.38958 7.1669 9.38958H4.38911C4.2786 9.38958 4.17262 9.34565 4.09448 9.26752C4.01634 9.18938 3.97244 9.08338 3.97244 8.97292C3.97244 8.86238 4.01634 8.75638 4.09448 8.67825C4.17262 8.60012 4.2786 8.55625 4.38911 8.55625H6.61133C6.64817 8.55625 6.6835 8.54158 6.70956 8.51558C6.73556 8.48952 6.75023 8.45418 6.75023 8.41732V7.63232C6.75023 7.52185 6.7941 7.41585 6.87223 7.33772C6.95043 7.25958 7.05636 7.21565 7.1669 7.21565C7.27736 7.21565 7.38336 7.25958 7.4615 7.33772C7.53963 7.41585 7.58356 7.52185 7.58356 7.63232V8.97292C7.58356 9.08338 7.53963 9.18938 7.4615 9.26752ZM8.79576 11.334H7.72243C7.68556 11.334 7.65023 11.3194 7.62416 11.2933C7.59816 11.2673 7.5835 11.232 7.5835 11.1951V10.4101C7.5835 10.2996 7.53963 10.1937 7.4615 10.1155C7.38336 10.0373 7.27736 9.99345 7.16683 9.99345C7.05636 9.99345 6.95036 10.0373 6.87223 10.1155C6.7941 10.1937 6.75016 10.2996 6.75016 10.4101V11.7507C6.75016 11.8612 6.7941 11.9672 6.87223 12.0453C6.95036 12.1235 7.05636 12.1673 7.16683 12.1673H8.79576C8.90623 12.1673 9.01223 12.1235 9.09036 12.0453C9.1685 11.9672 9.21243 11.8612 9.21243 11.7507C9.21243 11.6402 9.1685 11.5342 9.09036 11.4561C9.01223 11.3779 8.90623 11.334 8.79576 11.334ZM5.50022 7.44512H4.38911C4.2786 7.44512 4.17262 7.40118 4.09448 7.32305C4.01634 7.24492 3.97244 7.13892 3.97244 7.02845C3.97244 6.91792 4.01634 6.81192 4.09448 6.73378C4.17262 6.65566 4.2786 6.61176 4.38911 6.61176H5.50022C5.61073 6.61176 5.71671 6.65566 5.79485 6.73378C5.87299 6.81192 5.91689 6.91792 5.91689 7.02845C5.91689 7.13892 5.87299 7.24492 5.79485 7.32305C5.71671 7.40118 5.61073 7.44512 5.50022 7.44512ZM10.2224 7.44512H11.6114C11.7218 7.44512 11.8278 7.40118 11.906 7.32305C11.9841 7.24492 12.028 7.13892 12.028 7.02845C12.028 6.91792 11.9841 6.81192 11.906 6.73378C11.8278 6.65566 11.7218 6.61176 11.6114 6.61176H10.2224C10.112 6.61176 10.006 6.65566 9.92783 6.73378C9.8497 6.81192 9.80576 6.91792 9.80576 7.02845C9.80576 7.13892 9.8497 7.24492 9.92783 7.32305C10.006 7.40118 10.112 7.44512 10.2224 7.44512ZM8.55576 8.55618H11.6114C11.7218 8.55618 11.8278 8.60012 11.906 8.67825C11.9841 8.75638 12.028 8.86238 12.028 8.97285C12.028 9.08338 11.9841 9.18938 11.906 9.26752C11.8278 9.34565 11.7218 9.38952 11.6114 9.38952H8.55576C8.4453 9.38952 8.3393 9.34565 8.26116 9.26752C8.18303 9.18938 8.1391 9.08338 8.1391 8.97285C8.1391 8.86238 8.18303 8.75638 8.26116 8.67825C8.3393 8.60012 8.4453 8.55618 8.55576 8.55618Z" fill="black"/>
</svg>
