<svg width="32" height="32" viewBox="0 0 32 32" fill="none" xmlns="http://www.w3.org/2000/svg">
<path d="M12.6302 26.4604H8.83016C7.15987 26.4761 5.54557 25.8588 4.31187 24.7327C3.07816 23.6066 2.31655 22.0552 2.18016 20.3904C1.94515 16.6608 1.94515 12.9201 2.18016 9.19043C2.31084 7.64016 2.99322 6.18817 4.10336 5.09822C5.2135 4.00826 6.67775 3.35264 8.23016 3.25043C13.3949 2.92043 18.5754 2.92043 23.7402 3.25043C25.2936 3.35235 26.7592 4.00762 27.871 5.09739C28.9827 6.18717 29.6672 7.63929 29.8002 9.19043C30.0702 12.9189 30.0702 16.662 29.8002 20.3904C29.6637 22.057 28.9006 23.6098 27.6648 24.7362C26.429 25.8625 24.8122 26.4787 23.1402 26.4604H19.4802L12.6302 31.0004V26.4604Z" fill="#10D078"/>
<path d="M19.5698 21.6798H23.2398C23.7528 21.6915 24.2521 21.5132 24.6416 21.1791C25.0311 20.845 25.2833 20.3787 25.3498 19.8698C25.5498 16.4127 25.5498 12.9469 25.3498 9.48981C25.3106 9.02431 25.1013 8.58955 24.7619 8.26857C24.4225 7.9476 23.9767 7.76292 23.5098 7.74981C18.5153 7.41803 13.5043 7.41803 8.50977 7.74981C8.04983 7.77246 7.61377 7.96138 7.28267 8.28144C6.95158 8.60149 6.74799 9.0309 6.70977 9.48981C6.44982 12.9443 6.42977 16.4126 6.64977 19.8698C6.69811 20.3844 6.94377 20.8603 7.33527 21.1977C7.72677 21.5351 8.23369 21.7079 8.74977 21.6798H12.5598V26.4998L19.5698 21.6798Z" fill="#E7FAF2"/>
</svg>
