<svg width="18" height="12" viewBox="0 0 18 12" fill="none" xmlns="http://www.w3.org/2000/svg">
<path d="M2.70039 7.79922C3.6945 7.79922 4.50039 6.99333 4.50039 5.99922C4.50039 5.00511 3.6945 4.19922 2.70039 4.19922C1.70628 4.19922 0.900391 5.00511 0.900391 5.99922C0.900391 6.99333 1.70628 7.79922 2.70039 7.79922Z" fill="#E7FAF2"/>
<path d="M9.0002 7.79922C9.99431 7.79922 10.8002 6.99333 10.8002 5.99922C10.8002 5.00511 9.99431 4.19922 9.0002 4.19922C8.00608 4.19922 7.2002 5.00511 7.2002 5.99922C7.2002 6.99333 8.00608 7.79922 9.0002 7.79922Z" fill="#E7FAF2"/>
<path d="M15.3 7.79922C16.2941 7.79922 17.1 6.99333 17.1 5.99922C17.1 5.00511 16.2941 4.19922 15.3 4.19922C14.3059 4.19922 13.5 5.00511 13.5 5.99922C13.5 6.99333 14.3059 7.79922 15.3 7.79922Z" fill="#E7FAF2"/>
</svg>
