<svg width="14" height="14" viewBox="0 0 14 14" fill="none" xmlns="http://www.w3.org/2000/svg">
<g clip-path="url(#clip0_9_308)">
<path d="M6.52448 0.963655C6.67416 0.503 7.32586 0.503001 7.47554 0.963656L8.68387 4.6825C8.7508 4.88851 8.94278 5.02799 9.15939 5.02799H13.0696C13.554 5.02799 13.7554 5.6478 13.3635 5.9325L10.2001 8.23088C10.0248 8.3582 9.9515 8.58388 10.0184 8.78989L11.2268 12.5087C11.3764 12.9694 10.8492 13.3524 10.4573 13.0677L7.2939 10.7694C7.11866 10.642 6.88136 10.642 6.70612 10.7694L3.54268 13.0677C3.15082 13.3524 2.62358 12.9694 2.77326 12.5087L3.98158 8.78989C4.04852 8.58388 3.97519 8.3582 3.79995 8.23088L0.636508 5.9325C0.244652 5.6478 0.446041 5.02799 0.930403 5.02799H4.84063C5.05724 5.02799 5.24922 4.88851 5.31615 4.6825L6.52448 0.963655Z" fill="#FFB000"/>
</g>
<defs>
<clipPath id="clip0_9_308">
<rect width="14" height="14" fill="white"/>
</clipPath>
</defs>
</svg>
