<svg width="51" height="34" viewBox="0 0 51 34" fill="none" xmlns="http://www.w3.org/2000/svg">
<g clip-path="url(#clip0_11_5399)">
<path d="M48.8924 29.3764C48.8924 30.3964 48.0764 31.2124 47.0564 31.2124H1.36041C0.340412 31.2124 -0.475586 30.3964 -0.475586 29.3764V1.90436C-0.475586 0.884363 0.340412 0.0683594 1.36041 0.0683594H47.0564C48.0764 0.0683594 48.8924 0.884363 48.8924 1.90436V29.3764Z" fill="white"/>
<path d="M18.2925 9.11221L12.7845 22.2362H9.1805L6.4605 11.7642C6.3245 11.1522 6.1205 10.8802 5.6445 10.6082C4.8285 10.2002 3.4685 9.7242 2.3125 9.5202L2.3805 9.11221H8.1605C8.9085 9.11221 9.5885 9.58821 9.7245 10.4722L11.1525 18.0882L14.6885 9.1802H18.2925V9.11221ZM32.3685 17.9522C32.3685 14.4842 27.6085 14.2802 27.6085 12.7842C27.6085 12.3082 28.0845 11.8322 29.0365 11.6962C29.5125 11.6282 30.8725 11.5602 32.3685 12.3082L32.9805 9.5202C32.1645 9.2482 31.1445 8.9082 29.7845 8.9082C26.4525 8.9082 24.0725 10.6762 24.0725 13.2602C24.0725 15.1642 25.7725 16.1842 27.0645 16.7962C28.3565 17.4082 28.8325 17.8162 28.8325 18.4282C28.8325 19.3122 27.8125 19.7202 26.7925 19.7202C25.0925 19.7202 24.0725 19.2442 23.3245 18.9042L22.7125 21.7602C23.5285 22.1002 24.9565 22.4402 26.4525 22.4402C29.9885 22.4402 32.3005 20.6722 32.3685 17.9522ZM41.2085 22.2362H44.3365L41.6165 9.11221H38.6925C38.0125 9.11221 37.4685 9.52021 37.2645 10.0642L32.1645 22.2362H35.7005L36.3805 20.2642H40.7325L41.2085 22.2362ZM37.4005 17.6122L39.1685 12.7162L40.1885 17.6122H37.4005ZM23.1205 9.11221L20.3325 22.2362H16.9325L19.7205 9.11221H23.1205Z" fill="#1A1F71"/>
</g>
<defs>
<clipPath id="clip0_11_5399">
<rect width="51" height="34" fill="white"/>
</clipPath>
</defs>
</svg>
