<svg width="102" height="18" viewBox="0 0 102 18" fill="none" xmlns="http://www.w3.org/2000/svg">
<g clip-path="url(#clip0_11_5403)">
<path d="M44.412 11.9445V8.29585C44.412 6.91909 43.5183 5.99233 42.0799 5.98017C41.2455 5.92717 40.4479 6.32415 39.9978 7.01639C39.5875 6.34455 38.8362 5.94697 38.0395 5.98017C37.3466 5.94729 36.6875 6.27658 36.3065 6.84611V6.11638H35.0166V11.9445H36.3188V8.71666C36.3188 7.70476 36.8883 7.16963 37.7696 7.16963C38.651 7.16963 39.0595 7.71693 39.0595 8.70449V11.9445H40.3543V8.71666C40.3543 7.70476 40.9484 7.16963 41.805 7.16963C42.6616 7.16963 43.1073 7.71693 43.1073 8.70449V11.9445H44.412ZM63.6806 6.12125H61.5737V4.3553H60.2715V6.12125H59.0683V7.27909H60.2715V9.93287C60.2715 11.2853 60.8038 12.0905 62.3288 12.0905C62.8984 12.0922 63.457 11.9363 63.9405 11.6404L63.5692 10.5556C63.2231 10.7581 62.8304 10.8711 62.4279 10.884C61.7842 10.884 61.5713 10.4948 61.5713 9.91098V7.27909H63.6781L63.6806 6.12125ZM74.6802 5.9753C74.0396 5.95696 73.4401 6.2846 73.1181 6.82909V6.12125H71.8406V11.9445H73.1304V8.68017C73.1304 7.7072 73.5513 7.18179 74.3955 7.18179C74.6717 7.17787 74.946 7.22746 75.2026 7.32774L75.5987 6.13341C75.3039 6.02982 74.9933 5.97636 74.6802 5.9753ZM58.0508 6.58341C57.3205 6.15714 56.4809 5.94606 55.632 5.9753C54.1317 5.9753 53.1563 6.68314 53.1563 7.83855C53.1563 8.78963 53.8742 9.37341 55.2012 9.55585L55.8078 9.64098C56.5133 9.73828 56.85 9.92071 56.85 10.2491C56.85 10.6991 56.3797 10.9569 55.4983 10.9569C54.7872 10.9791 54.0894 10.7649 53.5177 10.3488L52.931 11.334C53.6821 11.85 54.5821 12.1152 55.4983 12.0904C57.209 12.0904 58.2018 11.2975 58.2018 10.1907C58.2018 9.16666 57.4195 8.63152 56.1321 8.44909L55.5255 8.36395C54.9685 8.29098 54.5204 8.18152 54.5204 7.79233C54.5204 7.36666 54.9413 7.11125 55.6493 7.11125C56.2981 7.12067 56.9337 7.29228 57.4962 7.6099L58.0508 6.58341ZM92.5921 5.9753C91.9515 5.95696 91.352 6.2846 91.0299 6.82909V6.12125H89.7525V11.9445H91.0423V8.68017C91.0423 7.7072 91.4632 7.18179 92.3074 7.18179C92.5836 7.17787 92.8579 7.22746 93.1145 7.32774L93.5106 6.13341C93.2158 6.02982 92.9052 5.97636 92.5921 5.9753ZM75.9825 9.03287C75.9825 10.7988 77.2352 12.0904 79.144 12.0904C79.918 12.1281 80.6783 11.8799 81.2756 11.3948L80.6567 10.3707C80.2108 10.7043 79.6673 10.8877 79.1068 10.8937C78.0769 10.8937 77.3218 10.1494 77.3218 9.03044C77.3218 7.91152 78.0794 7.17936 79.1068 7.1672C79.6673 7.17315 80.2108 7.35655 80.6567 7.69017L81.2756 6.66611C80.6783 6.18096 79.918 5.93281 79.144 5.97044C77.2352 5.97044 75.9825 7.26206 75.9825 9.02801V9.03287ZM88.0591 9.03287V6.11395H86.7692V6.82179C86.323 6.25605 85.6254 5.93783 84.8976 5.96801C83.2364 5.96801 81.9267 7.24747 81.9267 9.02557C81.9267 10.8037 83.2289 12.0831 84.8976 12.0831C85.6254 12.1133 86.323 11.7951 86.7692 11.2294V11.9348H88.0591V9.03287ZM83.2611 9.03287C83.2611 8.00882 83.9419 7.16963 85.0585 7.16963C86.1255 7.16963 86.8435 7.97476 86.8435 9.03287C86.8435 10.091 86.1255 10.8961 85.0585 10.8961C83.9419 10.8961 83.2611 10.0545 83.2611 9.03287ZM67.6987 5.9753C65.9657 5.9753 64.7476 7.21828 64.7476 9.03287C64.7476 10.884 66.0127 12.0904 67.7853 12.0904C68.6704 12.1209 69.5359 11.8299 70.2165 11.2731L69.5852 10.3342C69.0928 10.7213 68.4827 10.9354 67.8522 10.9423C67.0203 10.9423 66.2652 10.5653 66.0796 9.51693H70.4814C70.4938 9.35882 70.5062 9.20071 70.5062 9.03044C70.5062 7.21585 69.3525 5.97287 67.6913 5.97287L67.6987 5.9753ZM67.6739 7.10882C68.5058 7.10882 69.0381 7.61963 69.1742 8.52206H66.1018C66.238 7.68044 66.7579 7.10882 67.6764 7.10882H67.6739ZM100.019 9.03287V3.78125H98.7295V6.82666C98.2832 6.26091 97.5856 5.94269 96.8578 5.97287C95.1966 5.97287 93.8869 7.25233 93.8869 9.03044C93.8869 10.8085 95.1892 12.088 96.8578 12.088C97.5856 12.1182 98.2832 11.8 98.7295 11.2342V11.9396H100.019V9.03287ZM101.527 11.4069C101.578 11.4067 101.629 11.4167 101.676 11.4361C101.721 11.4551 101.762 11.4823 101.797 11.5164C101.831 11.5498 101.859 11.5894 101.879 11.6331C101.919 11.7247 101.919 11.8286 101.879 11.9202C101.859 11.9638 101.831 12.0035 101.797 12.0369C101.762 12.0708 101.721 12.0981 101.676 12.1172C101.629 12.1369 101.578 12.1468 101.527 12.1464C101.373 12.1483 101.232 12.0592 101.171 11.9202C101.131 11.8285 101.131 11.7248 101.171 11.6331C101.209 11.5438 101.282 11.4731 101.374 11.4361C101.424 11.4156 101.478 11.4057 101.532 11.4069H101.527ZM101.527 12.0637C101.566 12.0643 101.605 12.0568 101.641 12.0418C101.675 12.0273 101.706 12.0067 101.733 11.981C101.847 11.868 101.847 11.6853 101.733 11.5723C101.706 11.5465 101.675 11.5259 101.641 11.5115C101.605 11.4966 101.566 11.4892 101.527 11.4896C101.487 11.4891 101.448 11.4966 101.411 11.5115C101.321 11.5491 101.256 11.6279 101.237 11.7218C101.218 11.8158 101.248 11.9128 101.317 11.981C101.344 12.007 101.376 12.0277 101.411 12.0418C101.449 12.0575 101.49 12.065 101.532 12.0637H101.527ZM101.549 11.6015C101.586 11.599 101.623 11.6093 101.653 11.6307C101.678 11.6501 101.692 11.6799 101.69 11.711C101.691 11.7376 101.681 11.7633 101.661 11.7815C101.638 11.8014 101.609 11.8133 101.579 11.8156L101.693 11.9445H101.604L101.497 11.8156H101.463V11.9445H101.388V11.604L101.549 11.6015ZM101.463 11.6648V11.7572H101.549C101.565 11.7616 101.581 11.7616 101.596 11.7572C101.608 11.7496 101.614 11.7367 101.614 11.7231C101.614 11.7096 101.608 11.6967 101.596 11.6891C101.581 11.6847 101.565 11.6847 101.549 11.6891L101.463 11.6648ZM95.2263 9.03287C95.2263 8.00882 95.9071 7.16963 97.0237 7.16963C98.0907 7.16963 98.8087 7.97476 98.8087 9.03287C98.8087 10.091 98.0907 10.8961 97.0237 10.8961C95.9071 10.8961 95.2263 10.0545 95.2263 9.03287ZM51.6783 9.03287V6.11395H50.3884V6.82179C49.9422 6.26093 49.2481 5.94579 48.5242 5.9753C46.863 5.9753 45.5533 7.25476 45.5533 9.03287C45.5533 10.811 46.8555 12.0904 48.5242 12.0904C49.252 12.1206 49.9496 11.8024 50.3958 11.2367V11.9421H51.6857L51.6783 9.03287ZM46.8803 9.03287C46.8803 8.00882 47.5611 7.16963 48.6777 7.16963C49.7447 7.16963 50.4627 7.97476 50.4627 9.03287C50.4627 10.091 49.7447 10.8961 48.6777 10.8961C47.5611 10.8961 46.8803 10.0569 46.8803 9.03287Z" fill="#231F20"/>
<path d="M18.5583 2.11133H10.7598V15.8813H18.5583V2.11133Z" fill="#FF5F00"/>
<path d="M11.2549 8.99982C11.2528 6.3132 12.5081 3.7748 14.6591 2.11603C11.0048 -0.705574 5.75722 -0.294583 2.6041 3.06018C-0.549022 6.41493 -0.549022 11.5871 2.6041 14.9419C5.75722 18.2967 11.0048 18.7076 14.6591 15.886C12.5074 14.2267 11.252 11.6873 11.2549 8.99982Z" fill="#EB001B"/>
<path d="M29.0803 8.99929C29.0803 12.352 27.1318 15.4104 24.0624 16.8755C20.9931 18.3406 17.3418 17.9552 14.6592 15.8831C16.8093 14.2229 18.0646 11.6848 18.0646 8.99808C18.0646 6.31131 16.8093 3.77325 14.6592 2.11308C17.3421 0.0406411 20.994 -0.344523 24.0635 1.1212C27.1331 2.58692 29.0812 5.64614 29.0803 8.99929Z" fill="#F79E1B"/>
<path d="M28.2231 14.4206V14.1385H28.3395V14.0825H28.0498V14.1409H28.1662V14.4231L28.2231 14.4206ZM28.795 14.4206V14.0801H28.7183L28.6143 14.3233L28.5103 14.0801H28.4187V14.4206H28.4707V14.1652L28.5672 14.3866H28.6341L28.7306 14.1652V14.4231L28.795 14.4206Z" fill="#F79E1B"/>
</g>
<defs>
<clipPath id="clip0_11_5403">
<rect width="102" height="18" fill="white"/>
</clipPath>
</defs>
</svg>
