<?xml version="1.0" encoding="utf-8"?>
<!-- Generator: Adobe Illustrator 24.1.2, SVG Export Plug-In . SVG Version: 6.00 Build 0)  -->
<svg version="1.1" id="Слой_1" xmlns="http://www.w3.org/2000/svg" xmlns:xlink="http://www.w3.org/1999/xlink" x="0px" y="0px"
	 width="458.2px" height="134.1px" viewBox="0 0 458.2 134.1" style="enable-background:new 0 0 458.2 134.1;" xml:space="preserve"
	>
<style type="text/css">
	.st0{fill:#87B960;}
	.st1{fill:#1D1D1B;}
</style>
<path class="st0" d="M71.8,112.5h-9.9c3.9-22,7.7-43.7,11.6-65.6c3.4,0,11,0,11,0s0.3,1.2,0.5,2c2.2,7.6,4.2,15.2,6.2,22.8
	c0.2,0.8,0.5,1.6,1.3,2.4c1-3.5,1.9-7.1,2.9-10.6c1.3-4.8,2.6-9.5,3.8-14.3c0.4-1.8,0.6-2.2,0.6-2.2s7.1-0.1,9.6-0.1
	c1.9,10.7,3.8,21.2,5.6,31.7h8.2c1.7-7.3,1.6-14.6,0.2-22c-5.2-27.1-31.2-47.6-58.8-46.4C44.5,11.2,28.9,21,18.1,38.7
	c-1.1,1.9-0.9,1.4-1.6,2.5c-3.8,0-8.3,0-11.2,0c0.2-0.8,0.6-1.5,0.9-2C17.1,16.9,34.6,3.6,59.3,0.5C95-3.9,127,19.8,133.6,55.1
	c2,10.5,1.4,20.9-1.7,31.1c-0.2,0.8-0.4,1.2-0.8,1.8c-7.6,0.1-16.4,0.1-24.3,0.1c-1.1-5.9-2.1-11.6-3.2-17.4c-0.3,0-0.3,0-0.6,0
	c-3.5,13-7,26.1-10.5,39.1c-0.4,0-0.3,0-0.7,0C88,95.7,84.2,81.5,80.4,67.3c-0.3,0-0.3,0-0.6,0C77.1,82.3,74.5,97.4,71.8,112.5z"/>
<path d="M31.5,64.5C35,51.4,38.5,38.2,42,25.1c0.3,0,0.3,0,0.5,0c3.8,14.2,7.6,28.5,11.5,42.7c0.4,0,0.3,0,0.7,0l8-45.2c0,0,0,0,0,0
	h9.9c0,0,0,0,0,0c-3.9,21.9-7.7,43.6-11.5,65.5c0,0,0,0,0,0c-3.4,0-10.9,0-11.1,0c0,0,0,0,0,0c0-0.1-0.3-1.1-0.4-1.8
	c-2.1-7.6-4.2-15.2-6.2-22.8c-0.2-0.8-0.5-1.6-1.3-2.5c-2.4,9-4.8,17.9-7.3,27c0,0,0,0,0,0h-9.6c0,0,0,0,0,0c-0.9-5-1.8-10-2.7-14.9
	c-0.9-4.9-1.8-9.7-2.6-14.6c-0.3-1.7-0.4-1.8-0.5-2.3c0,0,0,0,0,0c-2.2,0-8.1,0.1-8.3,0.1c0,0,0,0,0,0c0,0.1-0.2,1.3-0.5,6.2
	c-2.1,27.3,14.3,51.3,40.2,59.4c24.8,7.8,52.2-2.8,65.6-25.4c1-1.7,1.3-2.2,1.3-2.3c0,0,0,0,0,0c0.1,0,8.3-0.2,11.7-0.2c0,0,0,0,0,0
	c-1.8,3.4-3.2,6.4-5,9.2c-11.8,17.8-28.1,28.5-49.5,30.8C38.4,138.2,5.9,113,0.7,76.6C-0.7,67.3,0,58.1,2.5,49c0.5-1.7,0.3-1,0.6-2
	c0,0,0,0,0,0c6.6,0.1,24.4-0.1,24.7-0.1c0,0,0,0,0,0c0,0.1,0.2,0.7,0.4,2.3c0.8,5.1,1.8,10.2,2.7,15.3
	C31.2,64.5,31.1,64.5,31.5,64.5z"/>
<g>
	<path class="st1" d="M167,87.5l-10.3-36.4h7.1l6.6,26.8h0.3l7-26.8h6.5l7,26.8h0.3l6.6-26.8h7.1l-10.3,36.4h-6.5L181.1,62h-0.3
		l-7.3,25.6H167z"/>
	<path class="st1" d="M209.7,51.1h8.1l10.8,26.4h0.4l10.8-26.4h8.1v36.4h-6.3v-25h-0.3l-10.1,24.9h-4.7l-10.1-25H216v25.1h-6.3V51.1
		z"/>
	<path d="M274.9,61.1c-0.2-1.6-0.9-2.8-2.1-3.6c-1.2-0.9-2.8-1.3-4.8-1.3c-1.4,0-2.6,0.2-3.5,0.6c-1,0.4-1.7,1-2.3,1.7
		c-0.5,0.7-0.8,1.5-0.8,2.4c0,0.8,0.2,1.4,0.5,2s0.8,1,1.4,1.4s1.3,0.7,2,1s1.5,0.5,2.2,0.7l3.4,0.9c1.4,0.3,2.7,0.8,4,1.3
		s2.4,1.2,3.4,2.1c1,0.8,1.8,1.8,2.4,3c0.6,1.2,0.9,2.5,0.9,4.1c0,2.1-0.5,4-1.6,5.6c-1.1,1.6-2.7,2.9-4.7,3.8
		c-2.1,0.9-4.5,1.4-7.5,1.4c-2.8,0-5.3-0.4-7.4-1.3c-2.1-0.9-3.7-2.2-4.9-3.8c-1.2-1.7-1.8-3.7-1.9-6.2h6.5c0.1,1.3,0.5,2.3,1.2,3.2
		s1.6,1.5,2.7,1.9c1.1,0.4,2.4,0.6,3.7,0.6c1.4,0,2.7-0.2,3.8-0.6c1.1-0.4,1.9-1,2.6-1.8c0.6-0.8,0.9-1.7,0.9-2.7
		c0-0.9-0.3-1.7-0.8-2.4c-0.5-0.6-1.3-1.1-2.3-1.6c-1-0.4-2.1-0.8-3.4-1.1l-4.1-1.1c-3-0.8-5.4-1.9-7.1-3.5
		c-1.7-1.6-2.6-3.7-2.6-6.3c0-2.1,0.6-4,1.8-5.6c1.2-1.6,2.8-2.9,4.8-3.8c2-0.9,4.3-1.3,6.8-1.3c2.6,0,4.9,0.4,6.8,1.3
		c1.9,0.9,3.5,2.1,4.6,3.7s1.7,3.4,1.7,5.5H274.9z"/>
	<path d="M286,56.6v-5.5h29.1v5.5h-11.3v30.9h-6.5V56.6H286z"/>
	<path d="M320.6,87.5V51.1h13.7c2.8,0,5.1,0.5,7.1,1.5c1.9,1,3.3,2.3,4.3,4.1s1.5,3.8,1.5,6.1c0,2.3-0.5,4.4-1.5,6.1
		c-1,1.7-2.4,3-4.4,4s-4.3,1.4-7.1,1.4h-9.7v-5.5h8.8c1.6,0,3-0.2,4-0.7c1-0.5,1.8-1.1,2.3-2s0.8-2,0.8-3.3c0-1.3-0.3-2.4-0.8-3.3
		c-0.5-0.9-1.3-1.6-2.3-2.1c-1-0.5-2.4-0.7-4-0.7h-6v30.9H320.6z M339.5,71l9,16.5h-7.4L332.3,71H339.5z"/>
	<path d="M353.2,87.5V51.1h23.7v5.5h-17.1v9.9h15.9V72h-15.9V82H377v5.5H353.2z"/>
	<path d="M388.3,87.5h-7l12.8-36.4h8.1l12.8,36.4h-7l-9.7-28.9H398L388.3,87.5z M388.6,73.2h19.2v5.3h-19.2V73.2z"/>
	<path d="M419.9,51.1h8.1l10.8,26.4h0.4L450,51.1h8.1v36.4h-6.3v-25h-0.3l-10.1,24.9h-4.7l-10.1-25h-0.3v25.1h-6.3V51.1z"/>
</g>
</svg>
