<svg width="16" height="16" viewBox="0 0 16 16" fill="none" xmlns="http://www.w3.org/2000/svg">
<path d="M8 15C11.866 15 15 11.866 15 8C15 4.13401 11.866 1 8 1C4.13401 1 1 4.13401 1 8C1 11.866 4.13401 15 8 15Z" fill="#10D078"/>
<path d="M8.71829 2.96289C9.02417 2.96289 9.2807 3.06896 9.48791 3.2811C9.70004 3.49323 9.80611 3.74977 9.80611 4.05071C9.80611 4.35165 9.70004 4.60818 9.48791 4.82032C9.27577 5.03246 9.01923 5.13852 8.71829 5.13852C8.42229 5.13852 8.16822 5.03246 7.95608 4.82032C7.74395 4.60818 7.63788 4.35165 7.63788 4.05071C7.63788 3.74977 7.74148 3.49323 7.94868 3.2811C8.16082 3.06896 8.41736 2.96289 8.71829 2.96289ZM9.0217 5.96889C9.27045 5.92692 9.4767 6.16087 9.4039 6.40239L7.94868 11.2303C7.86481 11.5313 7.82288 11.7286 7.82288 11.8223C7.82288 11.8766 7.84508 11.9284 7.88948 11.9777C7.93388 12.0221 7.98075 12.0443 8.03008 12.0443C8.11395 12.0443 8.19782 12.0073 8.28169 11.9333C8.46398 11.7835 8.67622 11.5338 8.91839 11.1843C9.01138 11.0501 9.19178 11.007 9.3325 11.0897C8.58756 12.3872 7.79575 13.036 6.95707 13.036C6.63639 13.036 6.37986 12.9472 6.18745 12.7696C5.99998 12.587 5.90625 12.3576 5.90625 12.0813C5.90625 11.8988 5.94818 11.6669 6.03205 11.3857L7.06067 7.84852C7.15934 7.50811 7.20867 7.25158 7.20867 7.07891C7.20867 6.97037 7.1618 6.87417 7.06807 6.7903C6.97433 6.70643 6.84606 6.6645 6.68326 6.6645C6.60926 6.6645 6.52046 6.66696 6.41686 6.6719L6.51306 6.37589L9.0217 5.96889Z" fill="white"/>
</svg>
