<svg width="20" height="20" viewBox="0 0 20 20" fill="none" xmlns="http://www.w3.org/2000/svg">
<path fill-rule="evenodd" clip-rule="evenodd" d="M13.2618 11.8084L13.285 11.7956C13.285 11.7956 15.7469 10.4312 16.0745 10.2503C16.4015 10.069 16.37 9.82038 16.0941 9.67724C15.8786 9.56601 14.2917 8.68274 13.6028 8.29882L11.5898 10.2068L13.2618 11.8084ZM12.926 11.9941L11.4956 12.7862L10.3837 13.4019C10.3837 13.4019 6.58874 15.5048 5.17188 16.2898L11.3235 10.459L12.926 11.9941ZM4.42193 3.34001C4.52839 3.31786 4.6571 3.34167 4.78608 3.41306C5.09658 3.58515 10.3835 6.51433 10.3835 6.51433L13.2689 8.11262L11.3314 9.95905L4.42193 3.34001ZM4.17401 3.61035C4.16877 3.63966 4.16602 3.67141 4.16602 3.70534V16.3388C4.16602 16.4865 4.23253 16.5884 4.33717 16.6256L11.0661 10.2127L4.17401 3.61035Z" fill="black"/>
</svg>
