<svg width="20" height="20" viewBox="0 0 20 20" fill="none" xmlns="http://www.w3.org/2000/svg">
<path fill-rule="evenodd" clip-rule="evenodd" d="M12.4919 0.666016C12.5472 1.50527 12.3187 2.33653 11.855 2.98326C11.633 3.30412 11.3512 3.56225 11.0308 3.73823C10.7105 3.91421 10.3599 4.00344 10.0056 3.9992C9.98299 3.59561 10.0291 3.1908 10.1412 2.80791C10.2533 2.42502 10.4293 2.07156 10.6591 1.76774C11.1291 1.14583 11.7834 0.752463 12.4919 0.666016ZM14.9554 6.98624C14.6453 7.53543 14.4784 8.15454 14.4703 8.78597C14.4711 9.49624 14.6798 10.1905 15.0705 10.7824C15.4612 11.3742 16.0165 11.8373 16.6673 12.114C16.4115 12.9495 16.0258 13.7391 15.5246 14.4535C14.8515 15.4656 14.1457 16.4544 13.0256 16.4727C12.4929 16.4851 12.1332 16.3311 11.7585 16.1706C11.3677 16.0033 10.9604 15.8289 10.323 15.8289C9.64708 15.8289 9.22155 16.0089 8.81114 16.1825C8.45648 16.3325 8.11311 16.4778 7.62919 16.498C6.56243 16.5377 5.74716 15.4177 5.04959 14.4151C3.65533 12.3675 2.56965 8.64469 4.02516 6.11157C4.36117 5.50463 4.84785 4.99553 5.43779 4.63387C6.02773 4.27221 6.70081 4.07034 7.39144 4.04791C7.99647 4.0354 8.57703 4.2698 9.08602 4.47531C9.47528 4.63248 9.82269 4.77275 10.1072 4.77275C10.3572 4.77275 10.695 4.63802 11.0885 4.48101C11.7085 4.23367 12.4671 3.93102 13.2401 4.01259C13.8326 4.03122 14.4125 4.18846 14.934 4.47181C15.4554 4.75516 15.9039 5.15682 16.2438 5.64489C15.7087 5.97562 15.2654 6.43705 14.9554 6.98624Z" fill="black"/>
</svg>
