<svg width="40" height="40" viewBox="0 0 40 40" fill="none" xmlns="http://www.w3.org/2000/svg">
<path d="M31.3827 6.99219H8.61853C5.8543 6.99219 3.74048 9.10601 3.74048 11.8702V28.1304C3.74048 30.8946 5.8543 33.0085 8.61853 33.0085H31.3827C34.147 33.0085 36.2608 30.8946 36.2608 28.1304V11.8702C36.2608 9.10601 34.147 6.99219 31.3827 6.99219ZM31.3827 10.2442C31.708 10.2442 31.8705 10.2442 32.0332 10.4068L21.1388 20.0003C20.4885 20.4881 19.5129 20.4881 19.0251 20.0003L8.45593 10.2442C8.61853 10.2442 8.61853 10.2442 8.61853 10.2442H31.3827ZM31.3827 29.7564H8.61853C7.64292 29.7564 6.99252 29.1061 6.99252 28.1304V13.3337L16.7486 22.4393C17.7242 23.2524 18.8624 23.7402 20.1632 23.7402C21.3015 23.7402 22.4397 23.2524 23.4153 22.4393L33.1714 13.8215V28.1304C33.0088 29.1061 32.3584 29.7564 31.3827 29.7564Z" fill="#10D078"/>
</svg>
