<svg width="10" height="10" viewBox="0 0 10 10" fill="none" xmlns="http://www.w3.org/2000/svg">
<g clip-path="url(#clip0_12_6561)">
<path d="M5.389 9.2769L9.27789 5.38802C9.33348 5.33246 9.38898 5.27691 9.38898 5.22136C9.44456 5.11024 9.44456 4.94357 9.38898 4.77691C9.33348 4.72136 9.33348 4.6658 9.27789 4.61024L5.389 0.721354C5.16678 0.499132 4.83344 0.499132 4.61122 0.721354C4.389 0.943573 4.389 1.27691 4.61122 1.49913L7.55567 4.44357H1.11122C0.777887 4.44357 0.555664 4.6658 0.555664 4.99913C0.555664 5.33246 0.777887 5.55469 1.11122 5.55469H7.55567L4.61122 8.49915C4.50011 8.61023 4.44455 8.72131 4.44455 8.88798C4.44455 9.05465 4.50011 9.16581 4.61122 9.2769C4.83344 9.49915 5.16678 9.49915 5.389 9.2769Z" fill="white"/>
</g>
<defs>
<clipPath id="clip0_12_6561">
<rect width="10" height="10" fill="white"/>
</clipPath>
</defs>
</svg>
