<svg width="10" height="10" viewBox="0 0 10 10" fill="none" xmlns="http://www.w3.org/2000/svg">
<g clip-path="url(#clip0_10_4904)">
<path d="M5.38876 9.2769L9.27765 5.38802C9.33323 5.33246 9.38873 5.27691 9.38873 5.22136C9.44431 5.11024 9.44431 4.94357 9.38873 4.77691C9.33323 4.72136 9.33323 4.6658 9.27765 4.61024L5.38876 0.721354C5.16653 0.499132 4.8332 0.499132 4.61097 0.721354C4.38876 0.943573 4.38876 1.27691 4.61097 1.49913L7.55542 4.44357H1.11097C0.777642 4.44357 0.55542 4.6658 0.55542 4.99913C0.55542 5.33246 0.777642 5.55469 1.11097 5.55469H7.55542L4.61097 8.49915C4.49987 8.61023 4.44431 8.72131 4.44431 8.88798C4.44431 9.05465 4.49987 9.16581 4.61097 9.2769C4.8332 9.49915 5.16653 9.49915 5.38876 9.2769Z" fill="white"/>
</g>
<defs>
<clipPath id="clip0_10_4904">
<rect width="10" height="10" fill="white"/>
</clipPath>
</defs>
</svg>
