<svg width="40" height="40" viewBox="0 0 40 40" fill="none" xmlns="http://www.w3.org/2000/svg">
<path d="M31.3825 6.99219H8.61828C5.85406 6.99219 3.74023 9.10601 3.74023 11.8702V28.1304C3.74023 30.8946 5.85406 33.0085 8.61828 33.0085H31.3825C34.1468 33.0085 36.2605 30.8946 36.2605 28.1304V11.8702C36.2605 9.10601 34.1468 6.99219 31.3825 6.99219ZM31.3825 10.2442C31.7078 10.2442 31.8703 10.2442 32.0329 10.4068L21.1386 20.0003C20.4883 20.4881 19.5126 20.4881 19.0248 20.0003L8.45569 10.2442C8.61828 10.2442 8.61828 10.2442 8.61828 10.2442H31.3825ZM31.3825 29.7564H8.61828C7.64267 29.7564 6.99227 29.1061 6.99227 28.1304V13.3337L16.7484 22.4393C17.724 23.2524 18.8622 23.7402 20.163 23.7402C21.3012 23.7402 22.4395 23.2524 23.4151 22.4393L33.1712 13.8215V28.1304C33.0085 29.1061 32.3581 29.7564 31.3825 29.7564Z" fill="#10D078"/>
</svg>
