<svg width="20" height="20" viewBox="0 0 20 20" fill="none" xmlns="http://www.w3.org/2000/svg">
<path fill-rule="evenodd" clip-rule="evenodd" d="M13.2618 11.8094L13.285 11.7966C13.285 11.7966 15.7469 10.4322 16.0745 10.2513C16.4015 10.07 16.37 9.82136 16.0941 9.67822C15.8786 9.56699 14.2917 8.68372 13.6028 8.2998L11.5898 10.2078L13.2618 11.8094ZM12.926 11.9951L11.4956 12.7872L10.3837 13.4029C10.3837 13.4029 6.58874 15.5058 5.17188 16.2908L11.3235 10.46L12.926 11.9951ZM4.42193 3.34099C4.52839 3.31884 4.6571 3.34265 4.78608 3.41404C5.09658 3.58613 10.3835 6.51531 10.3835 6.51531L13.2689 8.1136L11.3314 9.96003L4.42193 3.34099ZM4.17401 3.61133C4.16877 3.64064 4.16602 3.67239 4.16602 3.70632V16.3398C4.16602 16.4875 4.23253 16.5894 4.33717 16.6266L11.0661 10.2137L4.17401 3.61133Z" fill="black"/>
</svg>
