<svg width="32" height="32" viewBox="0 0 32 32" fill="none" xmlns="http://www.w3.org/2000/svg">
<path d="M12.6299 26.4604H8.82992C7.15962 26.4761 5.54533 25.8588 4.31162 24.7327C3.07792 23.6066 2.3163 22.0552 2.17992 20.3904C1.94491 16.6608 1.94491 12.9201 2.17992 9.19043C2.31059 7.64016 2.99297 6.18817 4.10311 5.09822C5.21325 4.00826 6.67751 3.35264 8.22992 3.25043C13.3947 2.92043 18.5752 2.92043 23.7399 3.25043C25.2934 3.35235 26.7589 4.00762 27.8707 5.09739C28.9825 6.18717 29.6669 7.63929 29.7999 9.19043C30.0699 12.9189 30.0699 16.662 29.7999 20.3904C29.6634 22.057 28.9004 23.6098 27.6646 24.7362C26.4287 25.8625 24.8119 26.4787 23.1399 26.4604H19.4799L12.6299 31.0004V26.4604Z" fill="#10D078"/>
<path d="M19.57 21.6798H23.24C23.753 21.6915 24.2523 21.5132 24.6418 21.1791C25.0313 20.845 25.2835 20.3787 25.35 19.8698C25.55 16.4127 25.55 12.9469 25.35 9.48981C25.3109 9.02431 25.1016 8.58955 24.7622 8.26857C24.4227 7.9476 23.977 7.76292 23.51 7.74981C18.5155 7.41803 13.5045 7.41803 8.51002 7.74981C8.05007 7.77246 7.61401 7.96138 7.28292 8.28144C6.95182 8.60149 6.74824 9.0309 6.71002 9.48981C6.45006 12.9443 6.43001 16.4126 6.65002 19.8698C6.69835 20.3844 6.94402 20.8603 7.33551 21.1977C7.72701 21.5351 8.23393 21.7079 8.75002 21.6798H12.56V26.4998L19.57 21.6798Z" fill="#E7FAF2"/>
</svg>
