<svg width="16" height="16" viewBox="0 0 16 16" fill="none" xmlns="http://www.w3.org/2000/svg">
<g clip-path="url(#clip0_9_3249)">
<path fill-rule="evenodd" clip-rule="evenodd" d="M8 14.8966C4.19843 14.8966 1.10345 11.8016 1.10345 8C1.10345 4.19843 4.19843 1.10345 8 1.10345C11.8016 1.10345 14.8966 4.19843 14.8966 8C14.8966 11.8016 11.8016 14.8966 8 14.8966ZM8 16C3.58899 16 0 12.411 0 8C0 3.58899 3.58899 0 8 0C12.411 0 16 3.58899 16 8C16 12.411 12.411 16 8 16ZM8.55172 4.68966C8.55172 4.38494 8.30472 4.13793 8 4.13793C7.69528 4.13793 7.44828 4.38494 7.44828 4.68966V7.72414C7.44828 8.18121 7.81879 8.55172 8.27586 8.55172H11.3103C11.6151 8.55172 11.8621 8.30472 11.8621 8C11.8621 7.69528 11.6151 7.44828 11.3103 7.44828H8.55172V4.68966Z" fill="#B4B4B4"/>
</g>
<defs>
<clipPath id="clip0_9_3249">
<rect width="16" height="16" fill="white"/>
</clipPath>
</defs>
</svg>
