<svg width="32" height="32" viewBox="0 0 32 32" fill="none" xmlns="http://www.w3.org/2000/svg">
<path d="M12.6302 26.4594H8.83016C7.15987 26.4751 5.54557 25.8579 4.31187 24.7318C3.07816 23.6057 2.31655 22.0542 2.18016 20.3895C1.94515 16.6598 1.94515 12.9191 2.18016 9.18945C2.31084 7.63918 2.99322 6.1872 4.10336 5.09724C5.2135 4.00729 6.67775 3.35166 8.23016 3.24945C13.3949 2.91945 18.5754 2.91945 23.7402 3.24945C25.2936 3.35138 26.7592 4.00664 27.871 5.09642C28.9827 6.18619 29.6672 7.63832 29.8002 9.18945C30.0702 12.9179 30.0702 16.661 29.8002 20.3895C29.6637 22.056 28.9006 23.6088 27.6648 24.7352C26.429 25.8616 24.8122 26.4777 23.1402 26.4594H19.4802L12.6302 30.9995V26.4594Z" fill="#10D078"/>
<path d="M19.5703 21.6808H23.2403C23.7533 21.6925 24.2526 21.5142 24.642 21.1801C25.0315 20.8459 25.2838 20.3796 25.3503 19.8708C25.5503 16.4137 25.5503 12.9479 25.3503 9.49079C25.3111 9.02529 25.1018 8.59052 24.7624 8.26955C24.423 7.94858 23.9772 7.7639 23.5103 7.75079C18.5158 7.41901 13.5048 7.41901 8.51026 7.75079C8.05032 7.77344 7.61426 7.96236 7.28316 8.28241C6.95207 8.60247 6.74848 9.03188 6.71026 9.49079C6.4503 12.9452 6.43026 16.4136 6.65026 19.8708C6.6986 20.3854 6.94426 20.8613 7.33576 21.1987C7.72725 21.5361 8.23418 21.7089 8.75026 21.6808H12.5603V26.5008L19.5703 21.6808Z" fill="#E7FAF2"/>
</svg>
