<svg width="16" height="16" viewBox="0 0 16 16" fill="none" xmlns="http://www.w3.org/2000/svg">
<path fill-rule="evenodd" clip-rule="evenodd" d="M1.88881 4.02288C2.03615 4.02288 2.17746 3.96434 2.28165 3.86016C2.38583 3.75597 2.44437 3.61466 2.44437 3.46732L2.42325 2.58732C2.42289 2.56882 2.4262 2.55044 2.43301 2.53323C2.43982 2.51602 2.44998 2.50035 2.46291 2.48711C2.47583 2.47388 2.49127 2.46334 2.5083 2.45613C2.52534 2.44892 2.54364 2.44516 2.56214 2.4451H3.46659C3.61393 2.4451 3.75524 2.38656 3.85943 2.28238C3.96361 2.17819 4.02215 2.03688 4.02215 1.88954C4.02215 1.7422 3.96361 1.60089 3.85943 1.4967C3.75524 1.39252 3.61393 1.33398 3.46659 1.33398H2.41992C2.13172 1.33398 1.85532 1.44847 1.65153 1.65226C1.44774 1.85605 1.33325 2.13245 1.33325 2.42065V3.46732C1.33325 3.61466 1.39179 3.75597 1.49597 3.86016C1.60016 3.96434 1.74147 4.02288 1.88881 4.02288ZM3.46659 13.5562L2.58659 13.5768C2.56809 13.5771 2.54971 13.5739 2.5325 13.567C2.51529 13.5602 2.49962 13.5501 2.48638 13.5371C2.47315 13.5242 2.46261 13.5088 2.4554 13.4917C2.44819 13.4747 2.44443 13.4564 2.44437 13.4379V12.534C2.44437 12.3867 2.38583 12.2453 2.28165 12.1411C2.17746 12.037 2.03615 11.9785 1.88881 11.9785C1.74147 11.9785 1.60016 12.037 1.49597 12.1411C1.39179 12.2453 1.33325 12.3867 1.33325 12.534V13.5801C1.33325 13.8685 1.4478 14.145 1.65169 14.3489C1.85559 14.5528 2.13213 14.6673 2.42047 14.6673H3.46659C3.61393 14.6673 3.75524 14.6088 3.85943 14.5046C3.96361 14.4005 4.02215 14.2591 4.02215 14.1118C4.02215 13.9645 3.96361 13.8231 3.85943 13.7189C3.75524 13.6147 3.61393 13.5562 3.46659 13.5562ZM12.5333 1.33398H13.5794C13.8678 1.33398 14.1443 1.44853 14.3482 1.65242C14.5521 1.85632 14.6667 2.13286 14.6667 2.4212V3.46732C14.6667 3.61466 14.6081 3.75597 14.5039 3.86016C14.3997 3.96434 14.2584 4.02288 14.1111 4.02288C13.9637 4.02288 13.8224 3.96434 13.7183 3.86016C13.6141 3.75597 13.5555 3.61466 13.5555 3.46732V2.56343C13.5555 2.54493 13.5517 2.52662 13.5445 2.50959C13.5373 2.49255 13.5267 2.47712 13.5135 2.46419C13.5003 2.45126 13.4846 2.4411 13.4674 2.4343C13.4502 2.42749 13.4318 2.42417 13.4133 2.42454L12.5333 2.4451C12.3859 2.4451 12.2447 2.38656 12.1405 2.28238C12.0363 2.17819 11.9777 2.03688 11.9777 1.88954C11.9777 1.7422 12.0363 1.60089 12.1405 1.4967C12.2447 1.39252 12.3859 1.33398 12.5333 1.33398ZM14.1111 11.9785C13.9637 11.9785 13.8224 12.037 13.7183 12.1411C13.6141 12.2453 13.5555 12.3867 13.5555 12.534L13.5767 13.414C13.577 13.4325 13.5737 13.4509 13.5669 13.4681C13.5601 13.4853 13.5499 13.501 13.537 13.5142C13.5241 13.5275 13.5086 13.538 13.4916 13.5452C13.4745 13.5524 13.4563 13.5561 13.4377 13.5562H12.5333C12.3859 13.5562 12.2447 13.6147 12.1405 13.7189C12.0363 13.8231 11.9777 13.9645 11.9777 14.1118C11.9777 14.2591 12.0363 14.4005 12.1405 14.5046C12.2447 14.6088 12.3859 14.6673 12.5333 14.6673H13.58C13.8682 14.6673 14.1446 14.5529 14.3483 14.3491C14.5521 14.1453 14.6667 13.8689 14.6667 13.5807V12.534C14.6667 12.3867 14.6081 12.2453 14.5039 12.1411C14.3997 12.037 14.2584 11.9785 14.1111 11.9785ZM4.38877 3.83399H5.77766C5.93107 3.83399 6.05543 3.95836 6.05543 4.11177V5.50066C6.05543 5.65407 5.93107 5.77844 5.77766 5.77844H4.38877C4.23535 5.77844 4.11099 5.65407 4.11099 5.50066V4.11177C4.11099 3.95836 4.23535 3.83399 4.38877 3.83399ZM11.611 3.83399H10.2221C10.0687 3.83399 9.94432 3.95836 9.94432 4.11177V5.50066C9.94432 5.65407 10.0687 5.77844 10.2221 5.77844H11.611C11.7644 5.77844 11.8888 5.65407 11.8888 5.50066V4.11177C11.8888 3.95836 11.7644 3.83399 11.611 3.83399ZM10.2221 10.2229H11.611C11.7644 10.2229 11.8888 10.3473 11.8888 10.5007V11.8895C11.8888 12.0429 11.7644 12.1673 11.611 12.1673H10.2221C10.0687 12.1673 9.94432 12.0429 9.94432 11.8895V10.5007C9.94432 10.3473 10.0687 10.2229 10.2221 10.2229ZM5.77766 10.2229H4.38877C4.23535 10.2229 4.11099 10.3473 4.11099 10.5007V11.8895C4.11099 12.0429 4.23535 12.1673 4.38877 12.1673H5.77766C5.93107 12.1673 6.05543 12.0429 6.05543 11.8895V10.5007C6.05543 10.3473 5.93107 10.2229 5.77766 10.2229ZM7.46125 5.8014C7.38312 5.87954 7.27712 5.92344 7.16659 5.92344C7.05612 5.92344 6.95012 5.87954 6.87199 5.8014C6.79385 5.72326 6.74992 5.61728 6.74992 5.50677V4.25066C6.74992 4.14015 6.79385 4.03417 6.87199 3.95603C6.95012 3.87789 7.05612 3.83399 7.16659 3.83399H8.79552C8.90599 3.83399 9.01199 3.87789 9.09012 3.95603C9.16825 4.03417 9.21219 4.14015 9.21219 4.25066C9.21219 4.36116 9.16825 4.46714 9.09012 4.54528C9.01199 4.62342 8.90599 4.66732 8.79552 4.66732H7.72219C7.68532 4.66732 7.64999 4.68196 7.62392 4.708C7.59792 4.73405 7.58325 4.76938 7.58325 4.80621V5.50677C7.58325 5.61728 7.53939 5.72326 7.46125 5.8014ZM8.83325 5.29569C8.72279 5.29569 8.61679 5.33959 8.53865 5.41773C8.46052 5.49587 8.41659 5.60185 8.41659 5.71236V7.57238C8.41659 7.68285 8.46052 7.78885 8.53865 7.86698C8.61679 7.94512 8.72279 7.98905 8.83325 7.98905C8.94379 7.98905 9.04979 7.94512 9.12792 7.86698C9.20605 7.78885 9.24992 7.68285 9.24992 7.57238V5.71236C9.24992 5.60185 9.20605 5.49587 9.12792 5.41773C9.04979 5.33959 8.94379 5.29569 8.83325 5.29569ZM7.46125 9.26752C7.38312 9.34565 7.27712 9.38958 7.16665 9.38958H4.38887C4.27836 9.38958 4.17238 9.34565 4.09424 9.26752C4.01609 9.18938 3.9722 9.08338 3.9722 8.97292C3.9722 8.86238 4.01609 8.75638 4.09424 8.67825C4.17238 8.60012 4.27836 8.55625 4.38887 8.55625H6.61109C6.64793 8.55625 6.68325 8.54158 6.70932 8.51558C6.73532 8.48952 6.74999 8.45418 6.74999 8.41732V7.63232C6.74999 7.52185 6.79385 7.41585 6.87199 7.33772C6.95019 7.25958 7.05612 7.21565 7.16665 7.21565C7.27712 7.21565 7.38312 7.25958 7.46125 7.33772C7.53939 7.41585 7.58332 7.52185 7.58332 7.63232V8.97292C7.58332 9.08338 7.53939 9.18938 7.46125 9.26752ZM8.79552 11.334H7.72219C7.68532 11.334 7.64999 11.3194 7.62392 11.2933C7.59792 11.2673 7.58325 11.232 7.58325 11.1951V10.4101C7.58325 10.2996 7.53939 10.1937 7.46125 10.1155C7.38312 10.0373 7.27712 9.99345 7.16659 9.99345C7.05612 9.99345 6.95012 10.0373 6.87199 10.1155C6.79385 10.1937 6.74992 10.2996 6.74992 10.4101V11.7507C6.74992 11.8612 6.79385 11.9672 6.87199 12.0453C6.95012 12.1235 7.05612 12.1673 7.16659 12.1673H8.79552C8.90599 12.1673 9.01199 12.1235 9.09012 12.0453C9.16825 11.9672 9.21219 11.8612 9.21219 11.7507C9.21219 11.6402 9.16825 11.5342 9.09012 11.4561C9.01199 11.3779 8.90599 11.334 8.79552 11.334ZM5.49997 7.44512H4.38887C4.27836 7.44512 4.17238 7.40118 4.09424 7.32305C4.01609 7.24492 3.9722 7.13892 3.9722 7.02845C3.9722 6.91792 4.01609 6.81192 4.09424 6.73378C4.17238 6.65566 4.27836 6.61176 4.38887 6.61176H5.49997C5.61049 6.61176 5.71647 6.65566 5.79461 6.73378C5.87275 6.81192 5.91665 6.91792 5.91665 7.02845C5.91665 7.13892 5.87275 7.24492 5.79461 7.32305C5.71647 7.40118 5.61049 7.44512 5.49997 7.44512ZM10.2222 7.44512H11.6111C11.7216 7.44512 11.8276 7.40118 11.9057 7.32305C11.9839 7.24492 12.0278 7.13892 12.0278 7.02845C12.0278 6.91792 11.9839 6.81192 11.9057 6.73378C11.8276 6.65566 11.7216 6.61176 11.6111 6.61176H10.2222C10.1117 6.61176 10.0057 6.65566 9.92759 6.73378C9.84945 6.81192 9.80552 6.91792 9.80552 7.02845C9.80552 7.13892 9.84945 7.24492 9.92759 7.32305C10.0057 7.40118 10.1117 7.44512 10.2222 7.44512ZM8.55552 8.55618H11.6111C11.7216 8.55618 11.8276 8.60012 11.9057 8.67825C11.9839 8.75638 12.0278 8.86238 12.0278 8.97285C12.0278 9.08338 11.9839 9.18938 11.9057 9.26752C11.8276 9.34565 11.7216 9.38952 11.6111 9.38952H8.55552C8.44505 9.38952 8.33905 9.34565 8.26092 9.26752C8.18279 9.18938 8.13885 9.08338 8.13885 8.97285C8.13885 8.86238 8.18279 8.75638 8.26092 8.67825C8.33905 8.60012 8.44505 8.55618 8.55552 8.55618Z" fill="black"/>
</svg>
