<svg width="21" height="20" viewBox="0 0 21 20" fill="none" xmlns="http://www.w3.org/2000/svg">
<path d="M9.91586 3.41601L6.58252 6.66601C6.24919 6.99934 6.24919 7.49934 6.58252 7.83268C6.91586 8.16601 7.41586 8.16601 7.74919 7.83268L9.66586 5.99935V15.9994C9.66586 16.4994 9.99919 16.8327 10.4991 16.8327C10.9991 16.8327 11.3325 16.4994 11.3325 15.9994V5.99935L13.2491 7.83268C13.5825 8.16601 14.0825 8.16601 14.4158 7.83268C14.5825 7.66601 14.6658 7.49934 14.6658 7.24934C14.6658 6.99934 14.5825 6.83268 14.4158 6.66601L11.0825 3.41601C10.7491 3.08268 10.2491 3.08268 9.91586 3.41601Z" fill="#FF3B30"/>
</svg>
