<svg width="136" height="136" viewBox="0 0 136 136" fill="none" xmlns="http://www.w3.org/2000/svg">
<g clip-path="url(#clip0_9_1896)">
<path d="M0 2.06055H28.8485H0ZM37.0909 2.06055H41.2121H37.0909ZM45.3333 2.06055H49.4545H45.3333ZM65.9394 2.06055H70.0606H65.9394ZM74.1818 2.06055H86.5455H74.1818ZM94.7879 2.06055H98.9091H94.7879ZM107.152 2.06055H136H107.152ZM0 6.18176H4.12121H0ZM24.7273 6.18176H28.8485H24.7273ZM37.0909 6.18176H41.2121H37.0909ZM61.8182 6.18176H78.303H61.8182ZM82.4242 6.18176H90.6667H82.4242ZM107.152 6.18176H111.273H107.152ZM131.879 6.18176H136H131.879ZM0 10.303H4.12121H0ZM8.24242 10.303H20.6061H8.24242ZM24.7273 10.303H28.8485H24.7273ZM32.9697 10.303H37.0909H32.9697ZM41.2121 10.303H53.5758H41.2121ZM57.697 10.303H70.0606H57.697ZM74.1818 10.303H98.9091H74.1818ZM107.152 10.303H111.273H107.152ZM115.394 10.303H127.758H115.394ZM131.879 10.303H136H131.879ZM0 14.4242H4.12121H0ZM8.24242 14.4242H20.6061H8.24242ZM24.7273 14.4242H28.8485H24.7273ZM32.9697 14.4242H37.0909H32.9697ZM45.3333 14.4242H49.4545H45.3333ZM74.1818 14.4242H78.303H74.1818ZM82.4242 14.4242H86.5455H82.4242ZM90.6667 14.4242H94.7879H90.6667ZM98.9091 14.4242H103.03H98.9091ZM107.152 14.4242H111.273H107.152ZM115.394 14.4242H127.758H115.394ZM131.879 14.4242H136H131.879ZM0 18.5454H4.12121H0ZM8.24242 18.5454H20.6061H8.24242ZM24.7273 18.5454H28.8485H24.7273ZM32.9697 18.5454H45.3333H32.9697ZM57.697 18.5454H70.0606H57.697ZM74.1818 18.5454H90.6667H74.1818ZM94.7879 18.5454H98.9091H94.7879ZM107.152 18.5454H111.273H107.152ZM115.394 18.5454H127.758H115.394ZM131.879 18.5454H136H131.879ZM0 22.6666H4.12121H0ZM24.7273 22.6666H28.8485H24.7273ZM32.9697 22.6666H41.2121H32.9697ZM49.4545 22.6666H53.5758H49.4545ZM82.4242 22.6666H94.7879H82.4242ZM98.9091 22.6666H103.03H98.9091ZM107.152 22.6666H111.273H107.152ZM131.879 22.6666H136H131.879ZM0 26.7878H28.8485H0ZM32.9697 26.7878H37.0909H32.9697ZM41.2121 26.7878H45.3333H41.2121ZM49.4545 26.7878H53.5758H49.4545ZM57.697 26.7878H61.8182H57.697ZM65.9394 26.7878H70.0606H65.9394ZM74.1818 26.7878H78.303H74.1818ZM82.4242 26.7878H86.5455H82.4242ZM90.6667 26.7878H94.7879H90.6667ZM98.9091 26.7878H103.03H98.9091ZM107.152 26.7878H136H107.152ZM32.9697 30.909H41.2121H32.9697ZM49.4545 30.909H53.5758H49.4545ZM57.697 30.909H61.8182H57.697ZM65.9394 30.909H70.0606H65.9394ZM86.5455 30.909H103.03H86.5455ZM0 35.0302H4.12121H0ZM8.24242 35.0302H28.8485H8.24242ZM37.0909 35.0302H41.2121H37.0909ZM45.3333 35.0302H49.4545H45.3333ZM53.5758 35.0302H61.8182H53.5758ZM70.0606 35.0302H78.303H70.0606ZM90.6667 35.0302H94.7879H90.6667ZM98.9091 35.0302H103.03H98.9091ZM107.152 35.0302H127.758H107.152ZM8.24242 39.1515H12.3636H8.24242ZM28.8485 39.1515H37.0909H28.8485ZM45.3333 39.1515H49.4545H45.3333ZM53.5758 39.1515H57.697H53.5758ZM65.9394 39.1515H86.5455H65.9394ZM94.7879 39.1515H98.9091H94.7879ZM107.152 39.1515H115.394H107.152ZM119.515 39.1515H127.758H119.515ZM131.879 39.1515H136H131.879ZM0 43.2727H8.24242H0ZM12.3636 43.2727H20.6061H12.3636ZM24.7273 43.2727H49.4545H24.7273ZM53.5758 43.2727H74.1818H53.5758ZM82.4242 43.2727H94.7879H82.4242ZM98.9091 43.2727H111.273H98.9091ZM115.394 43.2727H119.515H115.394ZM123.636 43.2727H131.879H123.636ZM12.3636 47.3939H16.4848H12.3636ZM37.0909 47.3939H45.3333H37.0909ZM53.5758 47.3939H57.697H53.5758ZM65.9394 47.3939H78.303H65.9394ZM86.5455 47.3939H90.6667H86.5455ZM94.7879 47.3939H98.9091H94.7879ZM107.152 47.3939H111.273H107.152ZM115.394 47.3939H136H115.394ZM0 51.5151H12.3636H0ZM16.4848 51.5151H20.6061H16.4848ZM24.7273 51.5151H28.8485H24.7273ZM32.9697 51.5151H41.2121H32.9697ZM45.3333 51.5151H53.5758H45.3333ZM57.697 51.5151H61.8182H57.697ZM65.9394 51.5151H70.0606H65.9394ZM82.4242 51.5151H86.5455H82.4242ZM90.6667 51.5151H107.152H90.6667ZM111.273 51.5151H123.636H111.273ZM127.758 51.5151H136H127.758ZM0 55.6363H16.4848H0ZM28.8485 55.6363H37.0909H28.8485ZM41.2121 55.6363H45.3333H41.2121ZM53.5758 55.6363H57.697H53.5758ZM61.8182 55.6363H65.9394H61.8182ZM70.0606 55.6363H86.5455H70.0606ZM94.7879 55.6363H98.9091H94.7879ZM107.152 55.6363H111.273H107.152ZM119.515 55.6363H123.636H119.515ZM127.758 55.6363H136H127.758ZM0 59.7575H4.12121H0ZM8.24242 59.7575H16.4848H8.24242ZM20.6061 59.7575H32.9697H20.6061ZM41.2121 59.7575H45.3333H41.2121ZM49.4545 59.7575H74.1818H49.4545ZM82.4242 59.7575H94.7879H82.4242ZM103.03 59.7575H111.273H103.03ZM123.636 59.7575H131.879H123.636ZM4.12121 63.8787H8.24242H4.12121ZM12.3636 63.8787H16.4848H12.3636ZM32.9697 63.8787H37.0909H32.9697ZM53.5758 63.8787H65.9394H53.5758ZM74.1818 63.8787H90.6667H74.1818ZM94.7879 63.8787H98.9091H94.7879ZM103.03 63.8787H127.758H103.03ZM0 67.9999H4.12121H0ZM20.6061 67.9999H32.9697H20.6061ZM37.0909 67.9999H45.3333H37.0909ZM53.5758 67.9999H65.9394H53.5758ZM70.0606 67.9999H74.1818H70.0606ZM78.303 67.9999H82.4242H78.303ZM90.6667 67.9999H107.152H90.6667ZM111.273 67.9999H119.515H111.273ZM131.879 67.9999H136H131.879ZM8.24242 72.1212H12.3636H8.24242ZM28.8485 72.1212H41.2121H28.8485ZM53.5758 72.1212H57.697H53.5758ZM74.1818 72.1212H90.6667H74.1818ZM94.7879 72.1212H98.9091H94.7879ZM107.152 72.1212H115.394H107.152ZM119.515 72.1212H131.879H119.515ZM8.24242 76.2424H16.4848H8.24242ZM20.6061 76.2424H37.0909H20.6061ZM45.3333 76.2424H53.5758H45.3333ZM61.8182 76.2424H70.0606H61.8182ZM74.1818 76.2424H78.303H74.1818ZM86.5455 76.2424H94.7879H86.5455ZM103.03 76.2424H107.152H103.03ZM111.273 76.2424H119.515H111.273ZM123.636 76.2424H131.879H123.636ZM0 80.3636H4.12121H0ZM8.24242 80.3636H20.6061H8.24242ZM37.0909 80.3636H41.2121H37.0909ZM49.4545 80.3636H57.697H49.4545ZM86.5455 80.3636H94.7879H86.5455ZM98.9091 80.3636H127.758H98.9091ZM131.879 80.3636H136H131.879ZM8.24242 84.4848H28.8485H8.24242ZM37.0909 84.4848H41.2121H37.0909ZM49.4545 84.4848H53.5758H49.4545ZM57.697 84.4848H61.8182H57.697ZM74.1818 84.4848H78.303H74.1818ZM82.4242 84.4848H86.5455H82.4242ZM90.6667 84.4848H94.7879H90.6667ZM98.9091 84.4848H107.152H98.9091ZM111.273 84.4848H123.636H111.273ZM127.758 84.4848H136H127.758ZM0 88.606H4.12121H0ZM8.24242 88.606H12.3636H8.24242ZM16.4848 88.606H24.7273H16.4848ZM37.0909 88.606H41.2121H37.0909ZM53.5758 88.606H74.1818H53.5758ZM82.4242 88.606H86.5455H82.4242ZM94.7879 88.606H98.9091H94.7879ZM103.03 88.606H107.152H103.03ZM123.636 88.606H127.758H123.636ZM131.879 88.606H136H131.879ZM0 92.7272H4.12121H0ZM8.24242 92.7272H20.6061H8.24242ZM24.7273 92.7272H28.8485H24.7273ZM32.9697 92.7272H37.0909H32.9697ZM45.3333 92.7272H49.4545H45.3333ZM57.697 92.7272H61.8182H57.697ZM86.5455 92.7272H94.7879H86.5455ZM111.273 92.7272H115.394H111.273ZM119.515 92.7272H131.879H119.515ZM0 96.8484H4.12121H0ZM8.24242 96.8484H12.3636H8.24242ZM16.4848 96.8484H24.7273H16.4848ZM32.9697 96.8484H37.0909H32.9697ZM41.2121 96.8484H45.3333H41.2121ZM49.4545 96.8484H53.5758H49.4545ZM65.9394 96.8484H70.0606H65.9394ZM74.1818 96.8484H78.303H74.1818ZM86.5455 96.8484H90.6667H86.5455ZM103.03 96.8484H111.273H103.03ZM119.515 96.8484H131.879H119.515ZM0 100.97H4.12121H0ZM12.3636 100.97H16.4848H12.3636ZM20.6061 100.97H28.8485H20.6061ZM37.0909 100.97H61.8182H37.0909ZM70.0606 100.97H74.1818H70.0606ZM82.4242 100.97H86.5455H82.4242ZM90.6667 100.97H119.515H90.6667ZM127.758 100.97H131.879H127.758ZM32.9697 105.091H37.0909H32.9697ZM41.2121 105.091H53.5758H41.2121ZM57.697 105.091H61.8182H57.697ZM65.9394 105.091H94.7879H65.9394ZM98.9091 105.091H103.03H98.9091ZM115.394 105.091H119.515H115.394ZM123.636 105.091H127.758H123.636ZM131.879 105.091H136H131.879ZM0 109.212H28.8485H0ZM41.2121 109.212H45.3333H41.2121ZM61.8182 109.212H65.9394H61.8182ZM70.0606 109.212H74.1818H70.0606ZM86.5455 109.212H90.6667H86.5455ZM94.7879 109.212H103.03H94.7879ZM107.152 109.212H111.273H107.152ZM115.394 109.212H119.515H115.394ZM123.636 109.212H131.879H123.636ZM0 113.333H4.12121H0ZM24.7273 113.333H28.8485H24.7273ZM32.9697 113.333H37.0909H32.9697ZM53.5758 113.333H57.697H53.5758ZM65.9394 113.333H103.03H65.9394ZM115.394 113.333H131.879H115.394ZM0 117.454H4.12121H0ZM8.24242 117.454H20.6061H8.24242ZM24.7273 117.454H28.8485H24.7273ZM32.9697 117.454H37.0909H32.9697ZM65.9394 117.454H70.0606H65.9394ZM78.303 117.454H86.5455H78.303ZM90.6667 117.454H94.7879H90.6667ZM98.9091 117.454H123.636H98.9091ZM131.879 117.454H136H131.879ZM0 121.576H4.12121H0ZM8.24242 121.576H20.6061H8.24242ZM24.7273 121.576H28.8485H24.7273ZM32.9697 121.576H37.0909H32.9697ZM45.3333 121.576H49.4545H45.3333ZM61.8182 121.576H65.9394H61.8182ZM70.0606 121.576H86.5455H70.0606ZM90.6667 121.576H94.7879H90.6667ZM98.9091 121.576H107.152H98.9091ZM115.394 121.576H123.636H115.394ZM127.758 121.576H136H127.758ZM0 125.697H4.12121H0ZM8.24242 125.697H20.6061H8.24242ZM24.7273 125.697H28.8485H24.7273ZM32.9697 125.697H37.0909H32.9697ZM45.3333 125.697H49.4545H45.3333ZM57.697 125.697H70.0606H57.697ZM74.1818 125.697H78.303H74.1818ZM86.5455 125.697H90.6667H86.5455ZM107.152 125.697H115.394H107.152ZM0 129.818H4.12121H0ZM24.7273 129.818H28.8485H24.7273ZM41.2121 129.818H45.3333H41.2121ZM49.4545 129.818H65.9394H49.4545ZM86.5455 129.818H94.7879H86.5455ZM103.03 129.818H111.273H103.03ZM115.394 129.818H127.758H115.394ZM0 133.939H28.8485H0ZM32.9697 133.939H37.0909H32.9697ZM61.8182 133.939H65.9394H61.8182ZM70.0606 133.939H74.1818H70.0606ZM94.7879 133.939H115.394H94.7879ZM127.758 133.939H131.879H127.758Z" fill="black"/>
<path d="M0 2.06055H28.8485M37.0909 2.06055H41.2121M45.3333 2.06055H49.4545M65.9394 2.06055H70.0606M74.1818 2.06055H86.5455M94.7879 2.06055H98.9091M107.152 2.06055H136M0 6.18176H4.12121M24.7273 6.18176H28.8485M37.0909 6.18176H41.2121M61.8182 6.18176H78.303M82.4242 6.18176H90.6667M107.152 6.18176H111.273M131.879 6.18176H136M0 10.303H4.12121M8.24242 10.303H20.6061M24.7273 10.303H28.8485M32.9697 10.303H37.0909M41.2121 10.303H53.5758M57.697 10.303H70.0606M74.1818 10.303H98.9091M107.152 10.303H111.273M115.394 10.303H127.758M131.879 10.303H136M0 14.4242H4.12121M8.24242 14.4242H20.6061M24.7273 14.4242H28.8485M32.9697 14.4242H37.0909M45.3333 14.4242H49.4545M74.1818 14.4242H78.303M82.4242 14.4242H86.5455M90.6667 14.4242H94.7879M98.9091 14.4242H103.03M107.152 14.4242H111.273M115.394 14.4242H127.758M131.879 14.4242H136M0 18.5454H4.12121M8.24242 18.5454H20.6061M24.7273 18.5454H28.8485M32.9697 18.5454H45.3333M57.697 18.5454H70.0606M74.1818 18.5454H90.6667M94.7879 18.5454H98.9091M107.152 18.5454H111.273M115.394 18.5454H127.758M131.879 18.5454H136M0 22.6666H4.12121M24.7273 22.6666H28.8485M32.9697 22.6666H41.2121M49.4545 22.6666H53.5758M82.4242 22.6666H94.7879M98.9091 22.6666H103.03M107.152 22.6666H111.273M131.879 22.6666H136M0 26.7878H28.8485M32.9697 26.7878H37.0909M41.2121 26.7878H45.3333M49.4545 26.7878H53.5758M57.697 26.7878H61.8182M65.9394 26.7878H70.0606M74.1818 26.7878H78.303M82.4242 26.7878H86.5455M90.6667 26.7878H94.7879M98.9091 26.7878H103.03M107.152 26.7878H136M32.9697 30.909H41.2121M49.4545 30.909H53.5758M57.697 30.909H61.8182M65.9394 30.909H70.0606M86.5455 30.909H103.03M0 35.0302H4.12121M8.24242 35.0302H28.8485M37.0909 35.0302H41.2121M45.3333 35.0302H49.4545M53.5758 35.0302H61.8182M70.0606 35.0302H78.303M90.6667 35.0302H94.7879M98.9091 35.0302H103.03M107.152 35.0302H127.758M8.24242 39.1515H12.3636M28.8485 39.1515H37.0909M45.3333 39.1515H49.4545M53.5758 39.1515H57.697M65.9394 39.1515H86.5455M94.7879 39.1515H98.9091M107.152 39.1515H115.394M119.515 39.1515H127.758M131.879 39.1515H136M0 43.2727H8.24242M12.3636 43.2727H20.6061M24.7273 43.2727H49.4545M53.5758 43.2727H74.1818M82.4242 43.2727H94.7879M98.9091 43.2727H111.273M115.394 43.2727H119.515M123.636 43.2727H131.879M12.3636 47.3939H16.4848M37.0909 47.3939H45.3333M53.5758 47.3939H57.697M65.9394 47.3939H78.303M86.5455 47.3939H90.6667M94.7879 47.3939H98.9091M107.152 47.3939H111.273M115.394 47.3939H136M0 51.5151H12.3636M16.4848 51.5151H20.6061M24.7273 51.5151H28.8485M32.9697 51.5151H41.2121M45.3333 51.5151H53.5758M57.697 51.5151H61.8182M65.9394 51.5151H70.0606M82.4242 51.5151H86.5455M90.6667 51.5151H107.152M111.273 51.5151H123.636M127.758 51.5151H136M0 55.6363H16.4848M28.8485 55.6363H37.0909M41.2121 55.6363H45.3333M53.5758 55.6363H57.697M61.8182 55.6363H65.9394M70.0606 55.6363H86.5455M94.7879 55.6363H98.9091M107.152 55.6363H111.273M119.515 55.6363H123.636M127.758 55.6363H136M0 59.7575H4.12121M8.24242 59.7575H16.4848M20.6061 59.7575H32.9697M41.2121 59.7575H45.3333M49.4545 59.7575H74.1818M82.4242 59.7575H94.7879M103.03 59.7575H111.273M123.636 59.7575H131.879M4.12121 63.8787H8.24242M12.3636 63.8787H16.4848M32.9697 63.8787H37.0909M53.5758 63.8787H65.9394M74.1818 63.8787H90.6667M94.7879 63.8787H98.9091M103.03 63.8787H127.758M0 67.9999H4.12121M20.6061 67.9999H32.9697M37.0909 67.9999H45.3333M53.5758 67.9999H65.9394M70.0606 67.9999H74.1818M78.303 67.9999H82.4242M90.6667 67.9999H107.152M111.273 67.9999H119.515M131.879 67.9999H136M8.24242 72.1212H12.3636M28.8485 72.1212H41.2121M53.5758 72.1212H57.697M74.1818 72.1212H90.6667M94.7879 72.1212H98.9091M107.152 72.1212H115.394M119.515 72.1212H131.879M8.24242 76.2424H16.4848M20.6061 76.2424H37.0909M45.3333 76.2424H53.5758M61.8182 76.2424H70.0606M74.1818 76.2424H78.303M86.5455 76.2424H94.7879M103.03 76.2424H107.152M111.273 76.2424H119.515M123.636 76.2424H131.879M0 80.3636H4.12121M8.24242 80.3636H20.6061M37.0909 80.3636H41.2121M49.4545 80.3636H57.697M86.5455 80.3636H94.7879M98.9091 80.3636H127.758M131.879 80.3636H136M8.24242 84.4848H28.8485M37.0909 84.4848H41.2121M49.4545 84.4848H53.5758M57.697 84.4848H61.8182M74.1818 84.4848H78.303M82.4242 84.4848H86.5455M90.6667 84.4848H94.7879M98.9091 84.4848H107.152M111.273 84.4848H123.636M127.758 84.4848H136M0 88.606H4.12121M8.24242 88.606H12.3636M16.4848 88.606H24.7273M37.0909 88.606H41.2121M53.5758 88.606H74.1818M82.4242 88.606H86.5455M94.7879 88.606H98.9091M103.03 88.606H107.152M123.636 88.606H127.758M131.879 88.606H136M0 92.7272H4.12121M8.24242 92.7272H20.6061M24.7273 92.7272H28.8485M32.9697 92.7272H37.0909M45.3333 92.7272H49.4545M57.697 92.7272H61.8182M86.5455 92.7272H94.7879M111.273 92.7272H115.394M119.515 92.7272H131.879M0 96.8484H4.12121M8.24242 96.8484H12.3636M16.4848 96.8484H24.7273M32.9697 96.8484H37.0909M41.2121 96.8484H45.3333M49.4545 96.8484H53.5758M65.9394 96.8484H70.0606M74.1818 96.8484H78.303M86.5455 96.8484H90.6667M103.03 96.8484H111.273M119.515 96.8484H131.879M0 100.97H4.12121M12.3636 100.97H16.4848M20.6061 100.97H28.8485M37.0909 100.97H61.8182M70.0606 100.97H74.1818M82.4242 100.97H86.5455M90.6667 100.97H119.515M127.758 100.97H131.879M32.9697 105.091H37.0909M41.2121 105.091H53.5758M57.697 105.091H61.8182M65.9394 105.091H94.7879M98.9091 105.091H103.03M115.394 105.091H119.515M123.636 105.091H127.758M131.879 105.091H136M0 109.212H28.8485M41.2121 109.212H45.3333M61.8182 109.212H65.9394M70.0606 109.212H74.1818M86.5455 109.212H90.6667M94.7879 109.212H103.03M107.152 109.212H111.273M115.394 109.212H119.515M123.636 109.212H131.879M0 113.333H4.12121M24.7273 113.333H28.8485M32.9697 113.333H37.0909M53.5758 113.333H57.697M65.9394 113.333H103.03M115.394 113.333H131.879M0 117.454H4.12121M8.24242 117.454H20.6061M24.7273 117.454H28.8485M32.9697 117.454H37.0909M65.9394 117.454H70.0606M78.303 117.454H86.5455M90.6667 117.454H94.7879M98.9091 117.454H123.636M131.879 117.454H136M0 121.576H4.12121M8.24242 121.576H20.6061M24.7273 121.576H28.8485M32.9697 121.576H37.0909M45.3333 121.576H49.4545M61.8182 121.576H65.9394M70.0606 121.576H86.5455M90.6667 121.576H94.7879M98.9091 121.576H107.152M115.394 121.576H123.636M127.758 121.576H136M0 125.697H4.12121M8.24242 125.697H20.6061M24.7273 125.697H28.8485M32.9697 125.697H37.0909M45.3333 125.697H49.4545M57.697 125.697H70.0606M74.1818 125.697H78.303M86.5455 125.697H90.6667M107.152 125.697H115.394M0 129.818H4.12121M24.7273 129.818H28.8485M41.2121 129.818H45.3333M49.4545 129.818H65.9394M86.5455 129.818H94.7879M103.03 129.818H111.273M115.394 129.818H127.758M0 133.939H28.8485M32.9697 133.939H37.0909M61.8182 133.939H65.9394M70.0606 133.939H74.1818M94.7879 133.939H115.394M127.758 133.939H131.879" stroke="#2C3033" stroke-width="4.12121"/>
</g>
<defs>
<clipPath id="clip0_9_1896">
<rect width="136" height="136" fill="white"/>
</clipPath>
</defs>
</svg>
