<svg width="32" height="32" viewBox="0 0 32 32" fill="none" xmlns="http://www.w3.org/2000/svg">
<path d="M12.6299 26.4594H8.82992C7.15962 26.4751 5.54533 25.8579 4.31162 24.7318C3.07792 23.6057 2.3163 22.0542 2.17992 20.3895C1.94491 16.6598 1.94491 12.9191 2.17992 9.18945C2.31059 7.63918 2.99297 6.1872 4.10311 5.09724C5.21325 4.00729 6.67751 3.35166 8.22992 3.24945C13.3947 2.91945 18.5752 2.91945 23.7399 3.24945C25.2934 3.35138 26.7589 4.00664 27.8707 5.09642C28.9825 6.18619 29.6669 7.63832 29.7999 9.18945C30.0699 12.9179 30.0699 16.661 29.7999 20.3895C29.6634 22.056 28.9004 23.6088 27.6646 24.7352C26.4287 25.8616 24.8119 26.4777 23.1399 26.4594H19.4799L12.6299 30.9995V26.4594Z" fill="#10D078"/>
<path d="M19.57 21.6808H23.24C23.753 21.6925 24.2523 21.5142 24.6418 21.1801C25.0313 20.8459 25.2835 20.3796 25.35 19.8708C25.55 16.4137 25.55 12.9479 25.35 9.49079C25.3109 9.02529 25.1016 8.59052 24.7622 8.26955C24.4227 7.94858 23.977 7.7639 23.51 7.75079C18.5155 7.41901 13.5045 7.41901 8.51002 7.75079C8.05007 7.77344 7.61401 7.96236 7.28292 8.28241C6.95182 8.60247 6.74824 9.03188 6.71002 9.49079C6.45006 12.9452 6.43001 16.4136 6.65002 19.8708C6.69835 20.3854 6.94402 20.8613 7.33551 21.1987C7.72701 21.5361 8.23393 21.7089 8.75002 21.6808H12.56V26.5008L19.57 21.6808Z" fill="#E7FAF2"/>
</svg>
