<svg width="4" height="9" viewBox="0 0 4 9" fill="none" xmlns="http://www.w3.org/2000/svg">
<path d="M1.11751 1.48073C1.0901 0.967939 1.49852 0.537109 2.01204 0.537109C2.52636 0.537109 2.93506 0.969199 2.90647 1.48272L2.67466 5.64603C2.65495 6.00013 2.36206 6.27717 2.00741 6.27717C1.65219 6.27717 1.35904 5.99927 1.34008 5.64455L1.11751 1.48073ZM2.01052 8.8084C1.77189 8.8084 1.57416 8.72928 1.41734 8.57088C1.26053 8.41256 1.18212 8.21718 1.18212 7.98495C1.18212 7.75269 1.26053 7.55915 1.41734 7.40431C1.57416 7.24947 1.77189 7.17205 2.01052 7.17205C2.24234 7.17205 2.43495 7.24947 2.58836 7.40431C2.74178 7.55915 2.81848 7.75269 2.81848 7.98495C2.81848 8.21718 2.74178 8.41256 2.58836 8.57088C2.43495 8.72928 2.24234 8.8084 2.01052 8.8084Z" fill="white"/>
</svg>
