<svg width="24" height="24" viewBox="0 0 24 24" fill="none" xmlns="http://www.w3.org/2000/svg">
<g clip-path="url(#clip0_9_3043)">
<path d="M24.0732 12.0733C24.0732 5.40541 18.7007 0 12.0732 0C5.44582 0 0.0732422 5.40541 0.0732422 12.0733C0.0732422 18.0994 4.46144 23.0942 10.1982 24V15.5633H7.15136V12.0733H10.1982V9.41342C10.1982 6.38755 11.9898 4.71614 14.7308 4.71614C16.0438 4.71614 17.417 4.95196 17.417 4.95196V7.92313H15.9038C14.4132 7.92313 13.9482 8.85386 13.9482 9.80864V12.0733H17.2764L16.7443 15.5633H13.9482V24C19.685 23.0942 24.0732 18.0994 24.0732 12.0733Z" fill="white"/>
</g>
<defs>
<clipPath id="clip0_9_3043">
<rect width="24" height="24" fill="white"/>
</clipPath>
</defs>
</svg>
