<svg width="4" height="9" viewBox="0 0 4 9" fill="none" xmlns="http://www.w3.org/2000/svg">
<path d="M1.11703 1.48073C1.08962 0.967939 1.49803 0.537109 2.01155 0.537109C2.52587 0.537109 2.93457 0.969199 2.90598 1.48272L2.67417 5.64603C2.65446 6.00013 2.36157 6.27717 2.00692 6.27717C1.6517 6.27717 1.35855 5.99927 1.33959 5.64455L1.11703 1.48073ZM2.01003 8.8084C1.7714 8.8084 1.57367 8.72928 1.41685 8.57088C1.26004 8.41256 1.18163 8.21718 1.18163 7.98495C1.18163 7.75269 1.26004 7.55915 1.41685 7.40431C1.57367 7.24947 1.7714 7.17205 2.01003 7.17205C2.24186 7.17205 2.43446 7.24947 2.58787 7.40431C2.74129 7.55915 2.81799 7.75269 2.81799 7.98495C2.81799 8.21718 2.74129 8.41256 2.58787 8.57088C2.43446 8.72928 2.24186 8.8084 2.01003 8.8084Z" fill="white"/>
</svg>
