<svg width="30" height="14" viewBox="0 0 30 14" fill="none" xmlns="http://www.w3.org/2000/svg">
<g clip-path="url(#clip0_11_5442)">
<path d="M30 0H0V14H30V0Z" fill="white"/>
<path d="M0.000111719 0V1.08831L7.66751 4.66662L9.99977 4.66657L0.000111719 0ZM13.2001 0V5.59953H0.000111719V8.39771H13.2001V14H16.8V8.39771H30V5.59953H16.8V0H13.2001ZM27.6673 0L17.9995 4.5115V4.66658H19.9997L29.9993 9.33333e-06L27.6673 0ZM9.97451 9.33333L-0.000488281 14H2.33189L11.9991 9.48827V9.33332L9.97451 9.33333ZM19.9999 9.33333L29.9995 14V12.9116L22.3333 9.33333H19.9999Z" fill="#C8102E"/>
<path d="M3.51 0L12 3.96676V0H3.51ZM18 0V3.96741L26.502 0H18ZM0 1.63263V4.66625L6.5016 4.6666L0 1.63263ZM30 1.63273L23.499 4.66658H30V1.63273ZM0 9.3332V12.3675L6.501 9.3332H0ZM23.5014 9.3332L30 12.402V9.3332H23.5014ZM18.0001 10.0325V13.9999H26.5021L18.0001 10.0325ZM12.0001 10.0327L3.49866 13.9999H12.0001V10.0327Z" fill="#012169"/>
</g>
<defs>
<clipPath id="clip0_11_5442">
<rect width="30" height="14" fill="white"/>
</clipPath>
</defs>
</svg>
