<svg width="51" height="31" viewBox="0 0 51 31" fill="none" xmlns="http://www.w3.org/2000/svg">
<path d="M22.0191 11.0385L18.2314 19.9862H15.7601L13.8961 12.8455C13.783 12.4057 13.6846 12.2446 13.3404 12.0593C12.7785 11.7575 11.8506 11.4743 11.0342 11.2986L11.0896 11.0385H15.0676C15.5746 11.0385 16.0304 11.3727 16.1456 11.9508L17.13 17.1284L19.563 11.0384H22.0191V11.0385ZM31.7019 17.0649C31.7118 14.7033 28.4037 14.5732 28.4264 13.5182C28.4335 13.1972 28.7422 12.8558 29.4181 12.7687C29.753 12.7253 30.676 12.6922 31.7228 13.1691L32.1334 11.2717C31.5709 11.0695 30.8472 10.875 29.9467 10.875C27.6359 10.875 26.0097 12.0912 25.996 13.8327C25.9811 15.1209 27.1567 15.8397 28.0425 16.2677C28.9537 16.706 29.2594 16.9877 29.2559 17.3798C29.2495 17.98 28.5292 18.245 27.8561 18.2554C26.681 18.2733 25.9992 17.9406 25.4557 17.6904L25.0319 19.6507C25.5782 19.8988 26.5864 20.1152 27.6317 20.1261C30.0877 20.1261 31.6943 18.925 31.7019 17.0649ZM37.8037 19.9862H39.9659L38.0786 11.0385H36.0829C35.6341 11.0385 35.2556 11.2972 35.0881 11.695L31.58 19.9862H34.0348L34.5221 18.6497H37.5215L37.8037 19.9862ZM35.1952 16.8159L36.4257 13.4563L37.1339 16.8159H35.1952ZM25.3594 11.0385L23.4262 19.9862H21.0885L23.0224 11.0385H25.3594Z" fill="white"/>
</svg>
