<svg width="32" height="32" viewBox="0 0 32 32" fill="none" xmlns="http://www.w3.org/2000/svg">
<path d="M9.67425 28.313V26.6672C9.6839 26.5288 9.66393 26.3899 9.61566 26.2598C9.5674 26.1297 9.49195 26.0114 9.39436 25.9127C9.29676 25.8141 9.17925 25.7374 9.04967 25.6878C8.92009 25.6381 8.78142 25.6167 8.6429 25.6249C8.46161 25.6131 8.28049 25.6501 8.11839 25.7321C7.95629 25.8141 7.81915 25.9381 7.72126 26.0912C7.63207 25.9427 7.50448 25.821 7.35193 25.7389C7.19938 25.6569 7.02753 25.6175 6.85446 25.6249C6.70361 25.6173 6.55339 25.6492 6.41868 25.7176C6.28398 25.7859 6.16945 25.8882 6.08644 26.0144V25.6907H5.51587V28.313H6.0919V26.8592C6.07944 26.7695 6.08701 26.6782 6.11405 26.5917C6.1411 26.5053 6.18695 26.4259 6.24831 26.3593C6.30968 26.2927 6.38504 26.2405 6.46897 26.2065C6.55291 26.1725 6.64334 26.1575 6.73376 26.1625C7.11229 26.1625 7.30433 26.4094 7.30433 26.8537V28.313H7.88037V26.8592C7.86885 26.7697 7.87707 26.6787 7.90446 26.5927C7.93185 26.5067 7.97774 26.4277 8.03891 26.3613C8.10009 26.2949 8.17505 26.2427 8.25855 26.2084C8.34205 26.174 8.43205 26.1584 8.52223 26.1625C8.91169 26.1625 9.09824 26.4094 9.09824 26.8537V28.313H9.67425ZM12.8891 27.0018V25.6907H12.3185V26.0089C12.2211 25.8834 12.0951 25.783 11.951 25.7162C11.8068 25.6494 11.6488 25.6181 11.4901 25.6249C11.1366 25.6422 10.8033 25.7948 10.5592 26.0512C10.3151 26.3075 10.179 26.6479 10.179 27.0019C10.179 27.3558 10.3151 27.6962 10.5592 27.9526C10.8033 28.2089 11.1366 28.3615 11.4901 28.3789C11.6488 28.3857 11.8068 28.3543 11.951 28.2875C12.0951 28.2207 12.2211 28.1203 12.3185 27.9948V28.313H12.8891V27.0018ZM10.766 27.0018C10.7749 26.8471 10.8288 26.6983 10.9212 26.5739C11.0136 26.4494 11.1404 26.3548 11.2859 26.3015C11.4315 26.2483 11.5895 26.2388 11.7403 26.2742C11.8912 26.3097 12.0284 26.3885 12.135 26.501C12.2416 26.6135 12.313 26.7548 12.3403 26.9073C12.3676 27.0599 12.3496 27.2171 12.2887 27.3596C12.2277 27.5021 12.1263 27.6236 11.9971 27.7092C11.8679 27.7948 11.7164 27.8407 11.5614 27.8412C11.4528 27.8427 11.3451 27.8216 11.245 27.7794C11.1449 27.7371 11.0546 27.6746 10.9799 27.5957C10.9051 27.5169 10.8476 27.4234 10.8108 27.3212C10.7739 27.219 10.7587 27.1102 10.766 27.0018ZM25.0973 25.6218C25.29 25.6199 25.4812 25.6557 25.6601 25.7272C25.8268 25.7938 25.9789 25.8924 26.1077 26.0175C26.2345 26.1418 26.3351 26.2903 26.4035 26.4542C26.5459 26.8054 26.5459 27.1983 26.4035 27.5495C26.3351 27.7134 26.2345 27.8619 26.1077 27.9863C25.9789 28.1114 25.8268 28.21 25.6601 28.2765C25.2981 28.4171 24.8966 28.4171 24.5346 28.2765C24.3681 28.2102 24.2164 28.1115 24.0883 27.9863C23.9622 27.8616 23.8622 27.7131 23.7939 27.5495C23.6516 27.1983 23.6516 26.8054 23.7939 26.4542C23.8622 26.2906 23.9622 26.1422 24.0883 26.0175C24.2164 25.8922 24.3681 25.7936 24.5346 25.7272C24.7135 25.6557 24.9047 25.6199 25.0973 25.6218V25.6218ZM25.0973 26.1613C24.9858 26.1602 24.8751 26.1812 24.7715 26.2229C24.674 26.262 24.5855 26.3207 24.5114 26.3953C24.4368 26.4716 24.3782 26.5619 24.3389 26.661C24.2549 26.8805 24.2549 27.1233 24.3389 27.3428C24.3782 27.4419 24.4368 27.5322 24.5114 27.6084C24.5854 27.6831 24.674 27.7418 24.7715 27.7809C24.981 27.8631 25.2137 27.8631 25.4232 27.7809C25.521 27.7416 25.6099 27.6829 25.6847 27.6084C25.7599 27.5325 25.8191 27.4421 25.8586 27.3428C25.9426 27.1233 25.9426 26.8805 25.8586 26.661C25.819 26.5617 25.7599 26.4713 25.6847 26.3953C25.6099 26.3209 25.521 26.2622 25.4232 26.2229C25.3196 26.1812 25.2089 26.1602 25.0973 26.1613V26.1613ZM15.9936 27.0018C15.9882 26.1844 15.4834 25.6249 14.7483 25.6249C14.3925 25.6435 14.0577 25.7993 13.8142 26.0595C13.5708 26.3197 13.4375 26.664 13.4425 27.0203C13.4475 27.3766 13.5903 27.7172 13.8409 27.9705C14.0915 28.2237 14.4305 28.3701 14.7867 28.3789C15.1781 28.3926 15.5609 28.2617 15.862 28.0113L15.5822 27.5889C15.3656 27.7625 15.0972 27.859 14.8196 27.8631C14.6311 27.879 14.4438 27.8209 14.2974 27.7011C14.151 27.5813 14.0569 27.4092 14.0351 27.2213H15.9827C15.9882 27.15 15.9936 27.0787 15.9936 27.0018ZM14.0406 26.7714C14.0507 26.5954 14.1292 26.4303 14.2594 26.3113C14.3896 26.1924 14.5611 26.1292 14.7373 26.1351C14.9097 26.1317 15.0763 26.1968 15.2007 26.3161C15.3252 26.4354 15.3972 26.5991 15.4012 26.7714H14.0406ZM18.3964 26.36C18.1475 26.2168 17.8661 26.1394 17.579 26.1351C17.2663 26.1351 17.0798 26.2503 17.0798 26.4423C17.0798 26.6179 17.2772 26.6672 17.5241 26.7001L17.7929 26.7385C18.3635 26.8208 18.7091 27.0622 18.7091 27.523C18.7091 28.0222 18.2702 28.3789 17.5132 28.3789C17.1079 28.3901 16.7099 28.2708 16.3776 28.0387L16.6464 27.5944C16.8981 27.781 17.2053 27.8777 17.5187 27.8687C17.9081 27.8687 18.1166 27.7535 18.1166 27.5505C18.1166 27.4023 17.9685 27.32 17.6558 27.2762L17.387 27.2378C16.8 27.1555 16.4818 26.8921 16.4818 26.4642C16.4818 25.943 16.9097 25.6249 17.5735 25.6249C17.949 25.6119 18.3203 25.7071 18.6433 25.8992L18.3964 26.36ZM21.1379 26.2119H20.2053V27.3969C20.2053 27.6602 20.2985 27.8358 20.5838 27.8358C20.7619 27.8298 20.9355 27.7789 21.0886 27.6876L21.2531 28.1759C21.0392 28.3093 20.792 28.3796 20.5399 28.3789C19.8652 28.3789 19.6293 28.0168 19.6293 27.4078V26.2119H19.0971V25.6907H19.6293L19.6291 24.8953H20.2051L20.2053 25.6907H21.1379V26.2119ZM23.1124 25.6249C23.2508 25.6254 23.3881 25.6496 23.5184 25.6962L23.3428 26.2338C23.2295 26.1887 23.1083 26.1663 22.9863 26.168C22.6132 26.168 22.4266 26.4094 22.4266 26.8428V28.313H21.8561V25.6907H22.4212V26.0089C22.4912 25.8886 22.5924 25.7894 22.714 25.7219C22.8357 25.6543 22.9733 25.6208 23.1124 25.6249V25.6249ZM27.0623 27.9313C27.0978 27.9311 27.133 27.938 27.1657 27.9518C27.1971 27.9649 27.2258 27.9839 27.2501 28.0077C27.2743 28.0315 27.2936 28.0598 27.307 28.0909C27.3207 28.1229 27.3278 28.1573 27.3278 28.1921C27.3278 28.2269 27.3207 28.2614 27.307 28.2934C27.2935 28.3244 27.2742 28.3525 27.2501 28.3762C27.2257 28.4 27.1971 28.4191 27.1657 28.4325C27.133 28.4464 27.0978 28.4535 27.0623 28.4533C27.0101 28.4538 26.9588 28.4389 26.9149 28.4105C26.8711 28.382 26.8366 28.3413 26.8157 28.2934C26.802 28.2614 26.795 28.2269 26.795 28.1921C26.795 28.1573 26.802 28.1229 26.8157 28.0909C26.8291 28.0598 26.8484 28.0316 26.8724 28.0077C26.8967 27.9837 26.9255 27.9647 26.9571 27.9518C26.9905 27.938 27.0262 27.931 27.0623 27.9313V27.9313ZM27.0623 28.3957C27.0894 28.3959 27.1162 28.3905 27.141 28.3797C27.1649 28.3694 27.1866 28.3546 27.205 28.3362C27.2285 28.3127 27.246 28.2838 27.2558 28.252C27.2655 28.2201 27.2673 28.1864 27.261 28.1537C27.2547 28.121 27.2405 28.0904 27.2196 28.0645C27.1986 28.0386 27.1717 28.0183 27.141 28.0052C27.1162 27.9946 27.0894 27.9893 27.0623 27.9895C27.0348 27.9893 27.0075 27.9946 26.9821 28.0052C26.9578 28.0152 26.9358 28.0298 26.9171 28.0483C26.8792 28.0866 26.8579 28.1384 26.8579 28.1923C26.8579 28.2462 26.8792 28.2979 26.9171 28.3362C26.9362 28.3552 26.9589 28.3702 26.9838 28.3804C27.0087 28.3906 27.0354 28.3958 27.0623 28.3957V28.3957ZM27.0777 28.0701C27.1034 28.0684 27.1289 28.0758 27.1497 28.0909C27.158 28.0977 27.1646 28.1064 27.169 28.1162C27.1733 28.1261 27.1754 28.1368 27.1749 28.1475C27.1752 28.1567 27.1736 28.1659 27.1701 28.1744C27.1666 28.1829 27.1614 28.1906 27.1548 28.197C27.1389 28.2112 27.1187 28.2196 27.0975 28.221L27.1768 28.3125H27.1148L27.0413 28.2217H27.0176V28.3125H26.9658V28.0701H27.0777ZM27.0176 28.1155V28.1801H27.0771C27.0885 28.1807 27.0999 28.1779 27.1097 28.1721C27.1137 28.1694 27.1169 28.1657 27.1191 28.1614C27.1212 28.1571 27.1221 28.1523 27.1218 28.1475C27.1221 28.1428 27.1211 28.1381 27.119 28.1339C27.1169 28.1297 27.1137 28.1261 27.1097 28.1235C27.0998 28.1177 27.0885 28.115 27.0771 28.1155H27.0176Z" fill="black"/>
<path d="M20.3268 5.67676H11.6738V21.2263H20.3268V5.67676Z" fill="#7375CF"/>
<path d="M12.2232 13.4516C12.2218 11.954 12.5612 10.4758 13.2156 9.12883C13.87 7.78183 14.8222 6.60136 16.0003 5.67679C14.5414 4.5301 12.7894 3.817 10.9444 3.61898C9.09946 3.42096 7.236 3.74601 5.56704 4.55699C3.89808 5.36796 2.49096 6.63213 1.50651 8.20501C0.522063 9.77789 0 11.596 0 13.4516C0 15.3071 0.522063 17.1253 1.50651 18.6981C2.49096 20.271 3.89808 21.5352 5.56704 22.3462C7.236 23.1572 9.09946 23.4822 10.9444 23.2842C12.7894 23.0862 14.5414 22.3731 16.0003 21.2264C14.8222 20.3018 13.87 19.1213 13.2156 17.7743C12.5612 16.4273 12.2218 14.9491 12.2232 13.4516V13.4516Z" fill="#EB001B"/>
<path d="M31.0565 19.5794V19.261H31.1848V19.1962H30.8579V19.261H30.9863V19.5794H31.0565ZM31.6911 19.5794V19.1956H31.5909L31.4757 19.4596L31.3604 19.1956H31.2601V19.5794H31.3309V19.2899L31.439 19.5395H31.5123L31.6204 19.2892V19.5794H31.6911Z" fill="#00A2E5"/>
<path d="M32 13.4516C32.0001 15.3071 31.4781 17.1252 30.4937 18.6981C29.5093 20.271 28.1022 21.5352 26.4333 22.3462C24.7643 23.1571 22.9009 23.4822 21.056 23.2842C19.211 23.0862 17.459 22.3731 16.0002 21.2264C17.1773 20.3009 18.1288 19.1202 18.783 17.7734C19.4373 16.4266 19.7773 14.9489 19.7773 13.4516C19.7773 11.9543 19.4373 10.4765 18.783 9.12974C18.1288 7.78296 17.1773 6.60229 16.0002 5.67679C17.459 4.5301 19.211 3.817 21.056 3.61898C22.9009 3.42096 24.7643 3.74602 26.4333 4.557C28.1022 5.36798 29.5093 6.63216 30.4937 8.20505C31.4781 9.77793 32.0001 11.596 32 13.4516V13.4516Z" fill="#00A2E5"/>
</svg>
