<svg width="32" height="32" viewBox="0 0 32 32" fill="none" xmlns="http://www.w3.org/2000/svg">
<path fill-rule="evenodd" clip-rule="evenodd" d="M30.4213 5.69345L22.5411 5.69141C22.5401 5.69141 22.539 5.69141 22.539 5.69141C22.5329 5.69141 22.527 5.6925 22.521 5.6925C21.4385 5.72593 20.0902 6.6012 19.8446 7.68047L16.1179 24.3028C15.8724 25.3922 16.5404 26.2786 17.6152 26.2949H25.8937C26.952 26.2421 27.9804 25.3769 28.2218 24.3099L31.9486 7.68743C32.1981 6.587 31.5139 5.69345 30.4213 5.69345" fill="#01798A"/>
<path fill-rule="evenodd" clip-rule="evenodd" d="M16.118 24.3029L19.8446 7.68056C20.0902 6.60129 21.4385 5.72603 22.521 5.69259L19.3879 5.69055L13.7429 5.68945C12.6573 5.71183 11.2914 6.59324 11.0459 7.68056L7.31818 24.3029C7.07171 25.3923 7.74074 26.2787 8.81478 26.295H17.6152C16.5405 26.2787 15.8724 25.3923 16.118 24.3029" fill="#024381"/>
<path fill-rule="evenodd" clip-rule="evenodd" d="M7.31823 24.3029L11.046 7.68052C11.2914 6.5932 12.6573 5.71179 13.7429 5.68941L6.51129 5.6875C5.41964 5.6875 4.02001 6.579 3.77053 7.68052L0.0427796 24.3029C0.0200943 24.4043 0.00750881 24.5037 0 24.601V24.9094C0.0729738 25.7035 0.674586 26.2817 1.53938 26.2949H8.81483C7.74079 26.2786 7.07175 25.3922 7.31823 24.3029" fill="#DD0228"/>
<path fill-rule="evenodd" clip-rule="evenodd" d="M13.8954 17.8017H14.0323C14.1581 17.8017 14.2427 17.7592 14.2823 17.675L14.638 17.1385H15.5903L15.3917 17.4913H16.5336L16.3887 18.032H15.03C14.8735 18.2693 14.6809 18.3809 14.4493 18.3677H13.7415L13.8954 17.8017ZM13.7391 18.5766H16.2408L16.0813 19.164H15.0752L14.9217 19.7309H15.9007L15.7412 20.3181H14.7622L14.5348 21.1558C14.4785 21.2959 14.5525 21.3588 14.7557 21.3445H15.5536L15.4058 21.8903H13.8739C13.5835 21.8903 13.4839 21.7228 13.575 21.3872L13.8658 20.3181H13.24L13.399 19.7309H14.0248L14.1782 19.164H13.58L13.7391 18.5766ZM17.732 17.1344L17.6926 17.4782C17.6926 17.4782 18.1645 17.1211 18.5931 17.1211H20.1768L19.5712 19.3311C19.5209 19.5838 19.3056 19.7094 18.9252 19.7094H17.1301L16.7097 21.2613C16.6854 21.3445 16.7197 21.3871 16.8103 21.3871H17.1634L17.0336 21.8688H16.1357C15.791 21.8688 15.6477 21.7644 15.7045 21.5545L16.8927 17.1344H17.732ZM19.0731 17.7592H17.6596L17.4905 18.3555C17.4905 18.3555 17.7259 18.1842 18.1193 18.178C18.5116 18.1718 18.9594 18.178 18.9594 18.178L19.0731 17.7592ZM18.561 19.1426C18.6655 19.1569 18.724 19.1152 18.731 19.0168L18.8175 18.7024H17.4018L17.2831 19.1426H18.561ZM17.6061 19.8566H18.4221L18.407 20.2125H18.6243C18.734 20.2125 18.7885 20.1771 18.7885 20.1072L18.8528 19.8769H19.531L19.4404 20.2125C19.3638 20.4925 19.1607 20.6386 18.8307 20.6528H18.396L18.394 21.2613C18.386 21.3588 18.4735 21.4084 18.6535 21.4084H19.062L18.9302 21.8902H17.9502C17.6756 21.9034 17.5409 21.7715 17.5437 21.4916L17.6061 19.8566Z" fill="white"/>
<path fill-rule="evenodd" clip-rule="evenodd" d="M7.71772 14.1898C7.60704 14.7365 7.35047 15.1564 6.95249 15.4546C6.55812 15.7477 6.04946 15.8948 5.42671 15.8948C4.84064 15.8948 4.41099 15.7446 4.13681 15.4434C3.94665 15.2294 3.85205 14.9576 3.85205 14.629C3.85205 14.4931 3.86819 14.347 3.90039 14.1898L4.56392 10.9646H5.56605L4.91155 14.1533C4.89141 14.2416 4.88337 14.3237 4.88442 14.3978C4.88337 14.5611 4.9236 14.695 5.00509 14.7994C5.12382 14.9546 5.3165 15.0316 5.58465 15.0316C5.893 15.0316 6.14708 14.9556 6.34427 14.8024C6.54151 14.6503 6.67028 14.4343 6.72812 14.1533L7.38467 10.9646H8.38173L7.71772 14.1898" fill="white"/>
<path fill-rule="evenodd" clip-rule="evenodd" d="M11.9262 12.921H12.7111L12.0963 15.7995H11.313L11.9262 12.921ZM12.1733 11.8723H12.9651L12.8172 12.571H12.0254L12.1733 11.8723Z" fill="white"/>
<path fill-rule="evenodd" clip-rule="evenodd" d="M13.4059 15.5804C13.2006 15.3826 13.0969 15.1158 13.0959 14.7771C13.0959 14.7193 13.0994 14.6534 13.107 14.5813C13.1146 14.5083 13.1242 14.4373 13.1377 14.3714C13.2308 13.9038 13.429 13.5326 13.7344 13.2587C14.0392 12.9839 14.407 12.8459 14.8376 12.8459C15.1903 12.8459 15.47 12.9454 15.6748 13.1441C15.8795 13.344 15.9821 13.6137 15.9821 13.9566C15.9821 14.0154 15.9776 14.0833 15.97 14.1563C15.961 14.2304 15.95 14.3014 15.9373 14.3714C15.8463 14.8318 15.6487 15.199 15.3433 15.4678C15.0379 15.7386 14.6711 15.8734 14.2435 15.8734C13.8894 15.8734 13.6106 15.7761 13.4059 15.5804ZM14.9015 15.0104C15.0399 14.8592 15.139 14.63 15.1993 14.3248C15.2084 14.2771 15.2164 14.2274 15.2214 14.1777C15.2264 14.129 15.2284 14.0833 15.2284 14.0418C15.2284 13.8642 15.1836 13.7264 15.0936 13.629C15.0041 13.5306 14.8769 13.4819 14.7124 13.4819C14.495 13.4819 14.3179 13.5589 14.1792 13.7131C14.0392 13.8673 13.9401 14.1006 13.8777 14.411C13.8692 14.4586 13.8621 14.5063 13.8556 14.553C13.8506 14.6006 13.8491 14.6452 13.8501 14.6858C13.8501 14.8623 13.8949 14.9982 13.9849 15.0945C14.0744 15.1909 14.2011 15.2386 14.3678 15.2386C14.5861 15.2386 14.7632 15.1625 14.9015 15.0104Z" fill="white"/>
<path fill-rule="evenodd" clip-rule="evenodd" d="M21.0742 17.826L21.2635 17.1546H22.2203L22.179 17.401C22.179 17.401 22.6679 17.1546 23.02 17.1546C23.3723 17.1546 24.2032 17.1546 24.2032 17.1546L24.0152 17.826H23.829L22.9365 20.9925H23.1227L22.9456 21.6213H22.7595L22.682 21.8941H21.7554L21.8327 21.6213H20.0046L20.1828 20.9925H20.3659L21.2593 17.826H21.0742ZM22.1065 17.826L21.863 18.683C21.863 18.683 22.2797 18.5218 22.6388 18.4762C22.7182 18.1769 22.8219 17.826 22.8219 17.826L22.1065 17.826ZM21.7503 19.0847L21.5059 19.9823C21.5059 19.9823 21.9677 19.7531 22.2846 19.7338C22.3761 19.3868 22.4677 19.0847 22.4677 19.0847L21.7503 19.0847ZM21.9294 20.9925L22.1125 20.3413H21.3983L21.2142 20.9925H21.9294ZM24.2435 17.113H25.1431L25.1812 17.4476C25.1753 17.5328 25.2255 17.5735 25.3322 17.5735H25.4911L25.3303 18.1404H24.6691C24.4167 18.1536 24.2868 18.0563 24.2748 17.8462L24.2435 17.113ZM23.98 18.3291H26.8937L26.7227 18.9377H25.795L25.636 19.5035H26.5627L26.3907 20.1111H25.3584L25.1249 20.4672H25.6301L25.7468 21.1801C25.7608 21.2511 25.8232 21.2856 25.9299 21.2856H26.0867L25.9219 21.8728H25.3664C25.0786 21.887 24.9299 21.7897 24.9177 21.5798L24.7838 20.9286L24.3241 21.6213C24.2154 21.8171 24.0483 21.9084 23.8231 21.8941H22.9748L23.1398 21.3068H23.4045C23.5132 21.3068 23.6036 21.2582 23.6851 21.1598L24.4046 20.1111H23.4769L23.6488 19.5035H24.6551L24.8151 18.9377H23.8079L23.98 18.3291Z" fill="white"/>
<path fill-rule="evenodd" clip-rule="evenodd" d="M8.64081 12.92H9.3486L9.26765 13.3358L9.36923 13.2171C9.59867 12.9697 9.87735 12.8469 10.2064 12.8469C10.5042 12.8469 10.719 12.9342 10.8538 13.1096C10.9866 13.2851 11.0228 13.5275 10.96 13.8389L10.5701 15.8004H9.84265L10.1948 14.0225C10.2311 13.8389 10.221 13.702 10.1651 13.6137C10.1098 13.5255 10.0041 13.4819 9.8517 13.4819C9.66456 13.4819 9.50708 13.5406 9.3788 13.6573C9.24998 13.775 9.16501 13.9383 9.12323 14.1462L8.79876 15.8004H8.06982L8.64081 12.92" fill="white"/>
<path fill-rule="evenodd" clip-rule="evenodd" d="M16.7579 12.92H17.4663L17.3859 13.3358L17.4863 13.2171C17.7159 12.9697 17.9956 12.8469 18.3236 12.8469C18.6214 12.8469 18.8366 12.9342 18.9704 13.1096C19.1024 13.2851 19.1406 13.5275 19.0761 13.8389L18.6877 15.8004H17.9593L18.3115 14.0225C18.3477 13.8389 18.3377 13.702 18.2823 13.6137C18.2249 13.5255 18.1212 13.4819 17.9695 13.4819C17.7822 13.4819 17.6253 13.5406 17.4955 13.6573C17.3666 13.775 17.2812 13.9383 17.241 14.1462L16.915 15.8004H16.187L16.7579 12.92" fill="white"/>
<path fill-rule="evenodd" clip-rule="evenodd" d="M20.2592 11.135H22.3158C22.7112 11.135 23.017 11.2253 23.2273 11.4027C23.4365 11.5823 23.5413 11.84 23.5413 12.1757V12.1858C23.5413 12.2496 23.5371 12.3217 23.5312 12.3997C23.521 12.4768 23.5079 12.5549 23.491 12.6361C23.4004 13.0803 23.19 13.4374 22.8651 13.7082C22.539 13.9779 22.1528 14.1139 21.7081 14.1139H20.6052L20.2642 15.8006H19.3093L20.2592 11.135ZM20.7732 13.3025H21.6879C21.9263 13.3025 22.1154 13.2466 22.2534 13.1361C22.3902 13.0246 22.4808 12.8542 22.531 12.623C22.539 12.5803 22.544 12.5418 22.5501 12.5063C22.5532 12.4729 22.5572 12.4393 22.5572 12.407C22.5572 12.2416 22.4989 12.1219 22.3821 12.0468C22.2654 11.9707 22.0824 11.9343 21.8287 11.9343H21.052L20.7732 13.3025Z" fill="white"/>
<path fill-rule="evenodd" clip-rule="evenodd" d="M27.8154 16.3572C27.5135 17.0043 27.2259 17.3815 27.0569 17.557C26.8877 17.7305 26.5528 18.1342 25.7458 18.1037L25.8153 17.6098C26.4943 17.3988 26.8616 16.4484 27.0709 16.0275L26.8214 12.928L27.3466 12.9209H27.7873L27.8346 14.8652L28.6605 12.9209H29.4967L27.8154 16.3572" fill="white"/>
<path fill-rule="evenodd" clip-rule="evenodd" d="M25.4772 13.1553L25.145 13.3855C24.7979 13.1117 24.481 12.9423 23.8694 13.2283C23.0362 13.6177 22.34 16.6047 24.634 15.6209L24.7648 15.7771L25.6673 15.8004L26.2599 13.0863L25.4772 13.1553ZM24.964 14.6391C24.819 15.0702 24.4952 15.3551 24.2417 15.274C23.9881 15.1949 23.8976 14.779 24.0444 14.347C24.1893 13.9149 24.5153 13.6309 24.7668 13.7121C25.0203 13.7912 25.1118 14.207 24.964 14.6391Z" fill="white"/>
</svg>
